<svg width="509" height="132" viewBox="0 0 509 132" fill="none" xmlns="http://www.w3.org/2000/svg">
<path d="M219.2 102.658C230.687 102.658 239.999 96.0695 239.999 87.9423C239.999 79.8151 230.687 73.2267 219.2 73.2267C207.713 73.2267 198.401 79.8151 198.401 87.9423C198.401 96.0695 207.713 102.658 219.2 102.658Z" fill="#0C64D6"/>
<path d="M42.4076 106.561C36.125 106.561 30.8147 105.439 26.4767 103.195C22.1387 100.951 18.6983 97.9597 16.1553 94.2201C13.6123 90.4057 11.7425 86.1051 10.5458 81.3183C9.42392 76.5315 8.86297 71.5952 8.86297 66.5093V26.3454H16.6041V66.5093C16.6041 70.6229 17.0154 74.6617 17.8381 78.6258C18.7357 82.5898 20.1567 86.1425 22.1013 89.2838C24.046 92.4251 26.6637 94.9306 29.9546 96.8005C33.2455 98.5955 37.3591 99.493 42.2955 99.493C47.3814 99.493 51.5698 98.5581 54.8607 96.6883C58.2264 94.7437 60.8441 92.2007 62.7139 89.0594C64.6586 85.9181 66.0422 82.4028 66.865 78.5136C67.6877 74.5495 68.0991 70.5481 68.0991 66.5093V26.3454H75.9523V66.5093C75.9523 71.8196 75.354 76.9055 74.1573 81.7671C72.9606 86.6286 71.016 90.8918 68.3234 94.5567C65.7057 98.2215 62.2652 101.138 58.002 103.307C53.7388 105.476 48.5407 106.561 42.4076 106.561ZM122.289 107.122C117.428 107.122 113.052 105.85 109.163 103.307C105.349 100.764 102.319 97.6232 100.076 93.8835V129.896H92.4468V47.5493H99.2904V58.8804C101.609 55.2155 104.713 52.2612 108.602 50.0174C112.491 47.6988 116.642 46.5395 121.055 46.5395C125.094 46.5395 128.796 47.3997 132.162 49.1199C135.528 50.7654 138.445 53.0091 140.913 55.8513C143.381 58.6934 145.288 61.9469 146.634 65.6118C148.055 69.2018 148.766 72.9415 148.766 76.8307C148.766 82.2906 147.644 87.3391 145.4 91.9763C143.231 96.5387 140.165 100.204 136.201 102.971C132.237 105.738 127.6 107.122 122.289 107.122ZM120.158 100.391C123.374 100.391 126.253 99.7548 128.796 98.4833C131.339 97.137 133.508 95.342 135.303 93.0982C137.173 90.8544 138.594 88.3488 139.566 85.5815C140.539 82.7394 141.025 79.8224 141.025 76.8307C141.025 73.6894 140.464 70.6977 139.342 67.8556C138.295 65.0134 136.762 62.5079 134.742 60.3389C132.723 58.1699 130.404 56.4496 127.787 55.1781C125.169 53.9067 122.327 53.2709 119.26 53.2709C117.315 53.2709 115.296 53.6449 113.202 54.3928C111.108 55.1407 109.088 56.2252 107.144 57.6463C105.274 58.9926 103.703 60.5258 102.432 62.2461C101.16 63.9663 100.375 65.7988 100.076 67.7434V85.6937C101.272 88.461 102.88 90.9666 104.9 93.2104C106.919 95.3794 109.238 97.137 111.856 98.4833C114.548 99.7548 117.315 100.391 120.158 100.391ZM188.86 103.195C188.261 103.42 187.326 103.831 186.055 104.429C184.783 105.028 183.25 105.551 181.455 106C179.66 106.449 177.716 106.673 175.621 106.673C173.452 106.673 171.395 106.262 169.451 105.439C167.581 104.616 166.085 103.382 164.963 101.737C163.841 100.017 163.28 97.9224 163.28 95.4542V53.6075H155.203V47.5493H163.28V27.8039H170.909V47.5493H184.372V53.6075H170.909V93.3226C171.059 95.4168 171.807 96.9874 173.153 98.0345C174.574 99.0816 176.182 99.6052 177.977 99.6052C180.071 99.6052 181.979 99.2686 183.699 98.5955C185.419 97.8476 186.466 97.324 186.84 97.0248L188.86 103.195ZM193.679 89.1716C193.679 85.5067 194.727 82.3654 196.821 79.7476C198.915 77.0551 201.794 74.9983 205.459 73.5772C209.199 72.0814 213.5 71.3334 218.361 71.3334C221.203 71.3334 224.158 71.5578 227.224 72.0066C230.291 72.4553 233.021 73.1285 235.414 74.026V69.0896C235.414 64.1533 233.955 60.2267 231.039 57.3097C228.122 54.3928 224.083 52.9344 218.922 52.9344C215.781 52.9344 212.677 53.5327 209.61 54.7294C206.619 55.8513 203.477 57.5341 200.186 59.7779L197.27 54.3928C201.084 51.7751 204.824 49.8304 208.488 48.559C212.153 47.2127 215.893 46.5395 219.707 46.5395C226.888 46.5395 232.572 48.5964 236.76 52.71C240.949 56.8236 243.043 62.5079 243.043 69.7628V96.8005C243.043 97.8476 243.267 98.6329 243.716 99.1564C244.165 99.6052 244.875 99.867 245.848 99.9418V106C245.025 106.075 244.314 106.15 243.716 106.224C243.118 106.299 242.669 106.299 242.37 106.224C240.5 106.15 239.079 105.551 238.106 104.429C237.134 103.307 236.611 102.111 236.536 100.839L236.424 96.5761C233.806 99.9418 230.403 102.56 226.214 104.429C222.026 106.224 217.763 107.122 213.425 107.122C209.685 107.122 206.282 106.337 203.216 104.766C200.224 103.12 197.868 100.951 196.148 98.2589C194.502 95.4916 193.679 92.4625 193.679 89.1716ZM232.834 93.6592C233.656 92.612 234.292 91.6023 234.741 90.63C235.19 89.6577 235.414 88.7976 235.414 88.0497V79.5233C232.871 78.551 230.216 77.803 227.448 77.2795C224.756 76.7559 222.026 76.4942 219.259 76.4942C213.799 76.4942 209.386 77.5787 206.02 79.7476C202.655 81.9166 200.972 84.871 200.972 88.6106C200.972 90.7796 201.533 92.8364 202.655 94.781C203.777 96.6509 205.422 98.2215 207.591 99.493C209.76 100.69 212.303 101.288 215.22 101.288C218.885 101.288 222.288 100.578 225.429 99.1564C228.645 97.7354 231.113 95.9029 232.834 93.6592ZM308.665 106H301.036V73.3528C301.036 66.4719 300.026 61.4608 298.007 58.3194C295.988 55.1033 292.809 53.4953 288.471 53.4953C285.479 53.4953 282.525 54.2432 279.608 55.7391C276.691 57.1602 274.111 59.1422 271.867 61.6851C269.698 64.1533 268.127 66.9954 267.155 70.2115V106H259.526V47.5493H266.482V60.7876C268.052 57.9455 270.109 55.4773 272.652 53.3831C275.195 51.2141 278.075 49.5313 281.291 48.3346C284.507 47.1379 287.835 46.5395 291.276 46.5395C294.492 46.5395 297.222 47.1379 299.465 48.3346C301.709 49.5313 303.504 51.2515 304.851 53.4953C306.197 55.6643 307.169 58.3194 307.767 61.4608C308.366 64.5273 308.665 67.9677 308.665 71.7822V106ZM350.176 107.122C345.988 107.122 342.098 106.337 338.508 104.766C334.918 103.12 331.814 100.914 329.197 98.1467C326.579 95.3046 324.522 92.0511 323.026 88.3862C321.605 84.7214 320.894 80.7948 320.894 76.6063C320.894 71.1465 322.129 66.1353 324.597 61.5729C327.14 57.0106 330.618 53.3831 335.03 50.6906C339.443 47.9232 344.454 46.5395 350.064 46.5395C355.823 46.5395 360.834 47.9232 365.097 50.6906C369.435 53.4579 372.838 57.1228 375.306 61.6851C377.775 66.1727 379.009 71.1091 379.009 76.4942C379.009 77.0925 379.009 77.6908 379.009 78.2892C379.009 78.8127 378.971 79.2241 378.896 79.5233H328.86C329.234 83.7117 330.393 87.4513 332.338 90.7422C334.357 93.9583 336.938 96.5387 340.079 98.4833C343.295 100.353 346.773 101.288 350.513 101.288C354.327 101.288 357.917 100.316 361.283 98.3711C364.723 96.4265 367.117 93.8835 368.463 90.7422L375.082 92.5373C373.885 95.3046 372.053 97.8102 369.585 100.054C367.117 102.298 364.2 104.055 360.834 105.327C357.543 106.524 353.99 107.122 350.176 107.122ZM328.636 74.026H371.829C371.529 69.7628 370.37 66.0231 368.351 62.807C366.406 59.5909 363.826 57.0854 360.61 55.2903C357.468 53.4205 353.99 52.4856 350.176 52.4856C346.362 52.4856 342.884 53.4205 339.742 55.2903C336.601 57.0854 334.021 59.6283 332.001 62.9192C330.057 66.1353 328.935 69.8376 328.636 74.026Z" fill="#0C64D6"/>
<path d="M216.986 88.5593C219.765 88.5593 222.018 86.3095 222.018 83.5341C222.018 80.7588 219.765 78.509 216.986 78.509C214.207 78.509 211.954 80.7588 211.954 83.5341C211.954 86.3095 214.207 88.5593 216.986 88.5593Z" fill="white"/>
<path d="M219.207 82.4592H214.356V99.4175H219.207V82.4592Z" fill="white"/>
<path d="M456.151 100.803C455.756 100.803 455.281 100.641 454.964 100.234C454.411 99.5841 454.49 98.6089 455.123 98.0401L505.123 54.1554C505.677 52.4488 505.756 50.9859 505.756 50.8234C505.756 41.2338 499.585 33.0257 499.506 32.9444L499.427 32.8632C490.883 19.1289 478.857 14.7404 473.003 12.6275C469.68 11.4084 457.733 7.83266 441.357 11.9773C428.145 15.3906 416.752 24.5739 410.185 37.1704C407.021 43.1842 406.467 47.6539 406.546 50.3358C406.546 50.9047 406.625 51.3923 406.625 51.7986C409.236 48.9542 414.537 44.647 422.527 45.0534C423.318 45.0534 433.208 45.541 438.983 55.0493C441.198 51.4735 446.183 45.6222 455.756 45.0534C456.072 45.0534 459.237 44.8096 463.034 46.1911C466.199 47.3289 470.471 49.7669 473.715 54.9681C475.851 51.3923 480.756 45.6222 490.012 45.0534C490.804 44.9721 491.595 45.6222 491.595 46.5162C491.674 47.4101 491.041 48.1416 490.171 48.1416C478.936 48.7917 475.297 58.3813 475.139 58.7876C474.901 59.3565 474.427 59.7629 473.794 59.7629C473.24 59.7629 472.607 59.4378 472.37 58.8689C466.832 47.3289 455.993 48.1416 455.914 48.1416C444.363 48.7917 440.486 58.5438 440.328 58.9502C440.091 59.5191 439.537 59.9254 438.983 59.9254C438.35 59.9254 437.797 59.6003 437.559 59.0315C432.891 48.4666 422.527 48.2228 422.448 48.2228H422.369C412.401 47.7352 407.258 55.9433 407.258 56.0245C406.942 56.5121 406.467 56.756 405.913 56.756C405.359 56.756 404.885 56.4309 404.647 55.9433C404.489 55.6182 400.85 48.5479 407.575 35.7888C414.537 22.3796 426.641 12.6275 440.803 9.05168C457.971 4.66321 470.708 8.4828 474.189 9.78309C479.807 11.8148 492.94 16.6096 502.117 31.1566C502.75 32.0505 509 40.5836 509 50.9047C509 51.0672 508.921 53.2614 508.051 55.6995C507.971 55.9433 507.813 56.1871 507.655 56.3496L457.338 100.478C456.863 100.641 456.547 100.803 456.151 100.803Z" fill="white"/>
<path d="M456.156 101.998C455.92 101.998 455.762 101.915 455.525 101.832C454.737 101.499 454.421 100.583 454.737 99.7512L472.168 57.8105C472.483 56.9783 473.43 56.6455 474.14 56.9783C474.928 57.3112 475.244 58.2266 474.928 59.0587L457.497 100.999C457.34 101.582 456.787 101.998 456.156 101.998Z" fill="white"/>
<path d="M455.754 101.749C455.439 101.749 455.044 101.665 454.808 101.333L404.959 56.4793C404.328 55.8968 404.249 54.8982 404.802 54.2325C405.354 53.5668 406.3 53.4835 406.931 54.0661L456.779 98.9193C457.41 99.5018 457.489 100.5 456.937 101.166C456.622 101.499 456.148 101.749 455.754 101.749Z" fill="white"/>
<path d="M456.24 101.748C455.688 101.748 455.136 101.415 454.82 100.833L437.705 59.2249C437.389 58.3928 437.705 57.4774 438.493 57.1445C439.282 56.8117 440.15 57.1445 440.465 57.9767L457.581 99.5844C457.896 100.417 457.581 101.332 456.792 101.665C456.634 101.665 456.477 101.748 456.24 101.748Z" fill="white"/>
<path d="M443.074 116.955C445.936 116.955 448.257 119.403 448.257 122.422C448.257 125.442 445.936 127.89 443.074 127.89C440.212 127.89 437.892 125.442 437.892 122.422C437.892 119.403 440.212 116.955 443.074 116.955ZM479.786 116.955C482.648 116.955 484.968 119.403 484.968 122.422C484.968 125.442 482.648 127.89 479.786 127.89C476.924 127.89 474.604 125.442 474.604 122.422C474.604 119.403 476.924 116.955 479.786 116.955ZM487.113 111.189L479.566 109.683C476.665 109.104 472.658 106.752 470.662 104.455L470.514 104.285C468.519 101.989 464.47 100.116 461.517 100.123L450.779 100.15C447.827 100.157 443.834 102.019 441.906 104.288C439.979 106.556 436.662 108.728 434.535 109.114C432.408 109.5 430.696 112.365 430.73 115.48L430.734 115.914C430.765 118.704 432.728 121.032 435.258 121.491C435.7 117.351 439.036 114.123 443.074 114.123C447.142 114.123 450.498 117.397 450.9 121.577H471.885C472.288 117.397 475.645 114.123 479.711 114.123C483.776 114.123 487.131 117.393 487.537 121.572C490.419 121.504 492.674 119.435 492.574 116.91C492.472 114.342 490.014 111.768 487.113 111.189ZM446.369 110.106C443.416 110.094 442.118 108.539 443.486 106.649C444.852 104.76 448.387 103.214 451.34 103.214H454.299L456.189 110.144L446.369 110.106ZM467.084 110.186L458.985 110.154L457.092 103.214H461.182C464.135 103.214 467.879 104.787 469.501 106.711C471.125 108.633 470.037 110.197 467.084 110.186Z" fill="white"/>
<path d="M435.128 121.312C432.748 120.801 430.913 118.576 430.884 115.913L430.884 115.913L430.88 115.479C430.88 115.479 430.88 115.479 430.88 115.479C430.863 113.947 431.276 112.48 431.951 111.351C432.628 110.219 433.556 109.445 434.562 109.262L434.562 109.262C435.654 109.064 437.034 108.412 438.377 107.533C439.723 106.651 441.046 105.532 442.021 104.385C442.966 103.271 444.427 102.25 446.022 101.506C447.617 100.763 449.331 100.303 450.78 100.3L461.518 100.273C462.966 100.269 464.694 100.728 466.312 101.476C467.929 102.225 469.421 103.256 470.401 104.384L470.401 104.384L470.549 104.554C470.549 104.554 470.549 104.554 470.549 104.554C471.561 105.718 473.076 106.89 474.699 107.843C476.321 108.796 478.064 109.537 479.537 109.83L487.083 111.336C488.501 111.619 489.814 112.39 490.785 113.407C491.756 114.424 492.375 115.677 492.424 116.916C492.518 119.298 490.423 121.289 487.671 121.417C487.199 117.236 483.815 113.973 479.711 113.973C475.604 113.973 472.218 117.242 471.75 121.427H451.036C450.567 117.242 447.182 113.973 443.074 113.973C439.005 113.973 435.646 117.182 435.128 121.312ZM454.443 103.174L454.413 103.064H454.299H451.34C449.839 103.064 448.197 103.456 446.758 104.086C445.321 104.714 444.069 105.587 443.364 106.561C443.011 107.05 442.821 107.528 442.794 107.976C442.768 108.427 442.907 108.836 443.192 109.178C443.757 109.854 444.874 110.25 446.368 110.256L456.188 110.294L456.386 110.295L456.334 110.104L454.443 103.174ZM458.841 110.194L458.871 110.304L458.985 110.304L467.083 110.336C468.574 110.341 469.65 109.952 470.132 109.259C470.628 108.547 470.446 107.597 469.616 106.614C468.784 105.628 467.419 104.742 465.899 104.103C464.377 103.463 462.683 103.064 461.182 103.064H457.092H456.895L456.947 103.253L458.841 110.194ZM443.074 117.105C445.846 117.105 448.107 119.478 448.107 122.422C448.107 125.367 445.846 127.74 443.074 127.74C440.302 127.74 438.042 125.367 438.042 122.422C438.042 119.478 440.302 117.105 443.074 117.105ZM479.786 117.105C482.558 117.105 484.818 119.478 484.818 122.422C484.818 125.367 482.558 127.74 479.786 127.74C477.014 127.74 474.754 125.367 474.754 122.422C474.754 119.478 477.014 117.105 479.786 117.105Z" stroke="black" stroke-opacity="0.56" stroke-width="0.3"/>
<path d="M493.364 46.4931C493.364 48.344 491.945 49.8213 490.222 49.8213C488.5 49.8213 487.081 48.344 487.081 46.4931C487.081 44.6421 488.5 43.1648 490.222 43.1648C491.945 43.1648 493.364 44.6421 493.364 46.4931Z" fill="#0C64D6" stroke="white" stroke-width="0.5"/>
<path d="M445.991 122.421C445.991 124.147 444.672 125.5 443.1 125.5C441.528 125.5 440.208 124.147 440.208 122.421C440.208 120.696 441.528 119.343 443.1 119.343C444.672 119.343 445.991 120.696 445.991 122.421Z" fill="#0C64D6" stroke="white"/>
<path d="M479.768 126.084C481.641 126.084 483.159 124.482 483.159 122.505C483.159 120.529 481.641 118.927 479.768 118.927C477.895 118.927 476.376 120.529 476.376 122.505C476.376 124.482 477.895 126.084 479.768 126.084Z" fill="#0C64D6"/>
</svg>
