<svg width="924"  viewBox="0 0 924 1053" fill="none" xmlns="http://www.w3.org/2000/svg">
<g filter="url(#filter0_d_1_3)">
<path d="M430.667 4.13335C428.133 4.40002 419.067 5.33335 410.667 6.13335C372.267 9.73335 319.333 21.3334 286 33.3334C191.467 67.6 111.067 132.667 57.3333 218.267C38.1333 248.8 20 289.867 12.6667 319.2C4.93332 349.733 5.06666 381.6 12.8 406C15.6 415.067 16.8 416.933 22.9333 422.133C26.8 425.333 126 509.867 243.333 610L456.667 792L529.067 792.4L601.333 792.667V900.667V1008.67H460.667H320V900.667V792.667H334.4H348.933L353.333 798.133C365.733 813.6 391.333 811.733 400.933 794.667C407.067 783.733 406 770.667 398.4 761.333C392.933 754.8 385.333 751.333 375.6 751.333C366.133 751.333 359.467 754.533 353.067 762L348.4 767.333H324.933C302 767.333 301.333 767.467 297.733 770.533L294 773.733V901.333V1028.93L297.733 1032.13L301.467 1035.33H460.4C634.133 1035.33 623.2 1035.87 626.533 1027.73C627.6 1024.93 628 991.067 627.733 898.933L627.333 773.733L623.6 770.533L619.867 767.333H558.933H498.133L501.067 764.4C502.667 762.8 594.667 684 705.6 589.467C852.267 464.267 908 416 909.6 412.533C921.333 388.667 920.533 346.133 907.467 303.2C897.467 270 883.2 241.467 859.067 206.267C827.067 159.6 798.4 128.8 759.2 99.2C720.667 70.2667 681.867 49.7334 629.067 30.5334C577.6 11.8667 536 4.80002 474 4.00002C452.8 3.73335 433.2 3.86669 430.667 4.13335ZM492.267 30C548.133 32.9334 587.6 41.4667 638.533 61.6C697.733 84.9333 748.133 117.6 787.067 158C805.867 177.333 819.333 194.4 838.8 223.6C871.733 273.067 888.4 317.6 890.267 361.467C890.933 375.2 890.533 381.067 888.667 389.2L886.4 399.6L836.933 441.867C649.867 601.733 499.467 729.867 499.067 729.467C498.4 728.933 621.067 450 628.267 436C638.267 416.267 645.867 405.333 658.667 392.4C670.933 380.133 687.467 368.533 701.867 362C711.333 357.867 727.467 352.667 731.333 352.667C732.667 352.667 736.267 355.067 739.333 357.867C751.467 369.067 767.067 368.667 778.8 356.8C796.8 338.933 785.867 309.733 760.533 307.6C750.8 306.8 740.267 311.867 734.667 319.867C731.467 324.533 729.867 325.733 725.467 326.533C717.2 327.867 699.067 333.733 688.4 338.667C664.8 349.467 638.533 371.467 622.267 393.733C617.867 399.867 613.867 404.267 613.333 403.733C612.933 403.2 608.533 397.6 603.733 391.2C577.067 356.667 539.733 333.6 496.4 325.2C479.067 321.733 450 322 432.4 325.733C386.933 335.467 349.333 359.067 322.933 394.267C318.133 400.8 314.133 406 314 406C313.867 406 311.6 402.8 309.067 398.933C284.667 362.8 242.267 335.467 196 326C178.267 322.4 149.333 322.267 130.933 325.867C98.4 332.133 69.3333 346.933 45.6 369.333L35.0667 379.2L34.2667 372C33.2 361.6 35.4667 339.6 39.3333 323.733C51.6 272.4 88.5333 210.4 135.867 161.6C192.667 103.067 262.133 63.3334 340.8 44.5334C380.4 35.0667 410.8 31.3334 464.667 28.9334C466.933 28.8 479.333 29.3334 492.267 30ZM185.333 350.667C224.533 357.067 260.667 378.8 284.133 409.867C290.933 419.067 299.067 433.733 300.4 439.333C300.933 441.2 329.2 506.8 363.2 585.333C397.333 663.733 424.933 728.133 424.667 728.4C424.4 728.667 339.2 656.533 235.467 568L46.6667 407.067L49.2 403.6C52.6667 398.667 64.2667 387.867 74 380.533C107.333 355.2 147.2 344.533 185.333 350.667ZM484.533 350.667C500.533 353.067 512.933 356.667 526.4 362.8C554.533 375.6 581.067 400.133 596.267 427.333L599.6 433.333L532.533 586C495.6 670 464.667 740.267 463.733 742.267C462.133 745.867 458.8 738.667 394.8 591.2C333.067 448.8 327.867 436.133 329.333 432.933C333.067 424.667 345.867 406.8 354.933 397.2C379.2 371.467 412.4 354.667 447.333 350.133C461.467 348.4 470.133 348.533 484.533 350.667Z" fill="white"/>
<path d="M544.667 823.2C542.533 824.533 533.867 832.533 525.733 840.933C511.333 855.6 510.667 856.533 510.667 861.867C510.667 869.6 516.133 875.333 523.6 875.333C527.733 875.333 529.733 874.4 533.333 870.667C535.867 868.133 538.4 866 538.933 866C539.467 866 540 890 540 919.467V972.933L543.867 976.8C549.733 982.667 558.933 981.6 563.6 974.4C565.733 971.067 566 966 566.667 918.933L567.333 867.067L572.533 871.2C579.467 876.667 585.467 876.8 590.8 871.467C595.333 866.933 596 860.533 592.267 855.333C591.067 853.467 582.667 844.933 573.733 836.267C556 819.2 553.2 817.867 544.667 823.2Z" fill="white"/>
</g>
<defs>
<filter id="filter0_d_1_3" x="-3.06711" y="0.854675" width="930.933" height="1051.49" filterUnits="userSpaceOnUse" color-interpolation-filters="sRGB">
<feFlood flood-opacity="0" result="BackgroundImageFix"/>
<feColorMatrix in="SourceAlpha" type="matrix" values="0 0 0 0 0 0 0 0 0 0 0 0 0 0 0 0 0 0 127 0" result="hardAlpha"/>
<feOffset dy="7"/>
<feGaussianBlur stdDeviation="5"/>
<feComposite in2="hardAlpha" operator="out"/>
<feColorMatrix type="matrix" values="0 0 0 0 0 0 0 0 0 0 0 0 0 0 0 0 0 0 0.25 0"/>
<feBlend mode="normal" in2="BackgroundImageFix" result="effect1_dropShadow_1_3"/>
<feBlend mode="normal" in="SourceGraphic" in2="effect1_dropShadow_1_3" result="shape"/>
</filter>
</defs>
</svg>
