<svg width="384" height="132" viewBox="0 0 384 132" fill="none" xmlns="http://www.w3.org/2000/svg">
<mask id="path-1-outside-1_18_40" maskUnits="userSpaceOnUse" x="7" y="25" width="374" height="106" fill="black">
<rect fill="white" x="7" y="25" width="374" height="106"/>
<path d="M42.4076 106.561C36.125 106.561 30.8147 105.439 26.4767 103.195C22.1387 100.951 18.6983 97.9597 16.1553 94.2201C13.6123 90.4057 11.7425 86.1051 10.5458 81.3183C9.42392 76.5315 8.86297 71.5952 8.86297 66.5093V26.3454H16.6041V66.5093C16.6041 70.6229 17.0154 74.6617 17.8381 78.6258C18.7357 82.5898 20.1567 86.1425 22.1013 89.2838C24.046 92.4251 26.6637 94.9306 29.9546 96.8005C33.2455 98.5955 37.3591 99.493 42.2955 99.493C47.3814 99.493 51.5698 98.5581 54.8607 96.6883C58.2264 94.7437 60.8441 92.2007 62.7139 89.0594C64.6586 85.9181 66.0422 82.4028 66.865 78.5136C67.6877 74.5495 68.0991 70.5481 68.0991 66.5093V26.3454H75.9523V66.5093C75.9523 71.8196 75.354 76.9055 74.1573 81.7671C72.9606 86.6286 71.016 90.8918 68.3234 94.5567C65.7057 98.2215 62.2652 101.138 58.002 103.307C53.7388 105.476 48.5407 106.561 42.4076 106.561ZM122.289 107.122C117.428 107.122 113.052 105.85 109.163 103.307C105.349 100.764 102.319 97.6232 100.076 93.8835V129.896H92.4468V47.5493H99.2904V58.8804C101.609 55.2155 104.713 52.2612 108.602 50.0174C112.491 47.6988 116.642 46.5395 121.055 46.5395C125.094 46.5395 128.796 47.3997 132.162 49.1199C135.528 50.7654 138.445 53.0091 140.913 55.8513C143.381 58.6934 145.288 61.9469 146.634 65.6118C148.055 69.2018 148.766 72.9415 148.766 76.8307C148.766 82.2906 147.644 87.3391 145.4 91.9763C143.231 96.5387 140.165 100.204 136.201 102.971C132.237 105.738 127.6 107.122 122.289 107.122ZM120.158 100.391C123.374 100.391 126.253 99.7548 128.796 98.4833C131.339 97.137 133.508 95.342 135.303 93.0982C137.173 90.8544 138.594 88.3488 139.566 85.5815C140.539 82.7394 141.025 79.8224 141.025 76.8307C141.025 73.6894 140.464 70.6977 139.342 67.8556C138.295 65.0134 136.762 62.5079 134.742 60.3389C132.723 58.1699 130.404 56.4496 127.787 55.1781C125.169 53.9067 122.327 53.2709 119.26 53.2709C117.315 53.2709 115.296 53.6449 113.202 54.3928C111.108 55.1407 109.088 56.2252 107.144 57.6463C105.274 58.9926 103.703 60.5258 102.432 62.2461C101.16 63.9663 100.375 65.7988 100.076 67.7434V85.6937C101.272 88.461 102.88 90.9666 104.9 93.2104C106.919 95.3794 109.238 97.137 111.856 98.4833C114.548 99.7548 117.315 100.391 120.158 100.391ZM188.86 103.195C188.261 103.42 187.326 103.831 186.055 104.429C184.783 105.028 183.25 105.551 181.455 106C179.66 106.449 177.716 106.673 175.621 106.673C173.452 106.673 171.395 106.262 169.451 105.439C167.581 104.616 166.085 103.382 164.963 101.737C163.841 100.017 163.28 97.9224 163.28 95.4542V53.6075H155.203V47.5493H163.28V27.8039H170.909V47.5493H184.372V53.6075H170.909V93.3226C171.059 95.4168 171.807 96.9874 173.153 98.0345C174.574 99.0816 176.182 99.6052 177.977 99.6052C180.071 99.6052 181.979 99.2686 183.699 98.5955C185.419 97.8476 186.466 97.324 186.84 97.0248L188.86 103.195ZM193.679 89.1716C193.679 85.5067 194.727 82.3654 196.821 79.7476C198.915 77.0551 201.794 74.9983 205.459 73.5772C209.199 72.0814 213.5 71.3334 218.361 71.3334C221.203 71.3334 224.158 71.5578 227.224 72.0066C230.291 72.4553 233.021 73.1285 235.414 74.026V69.0896C235.414 64.1533 233.955 60.2267 231.039 57.3097C228.122 54.3928 224.083 52.9344 218.922 52.9344C215.781 52.9344 212.677 53.5327 209.61 54.7294C206.619 55.8513 203.477 57.5341 200.186 59.7779L197.27 54.3928C201.084 51.7751 204.824 49.8304 208.488 48.559C212.153 47.2127 215.893 46.5395 219.707 46.5395C226.888 46.5395 232.572 48.5964 236.76 52.71C240.949 56.8236 243.043 62.5079 243.043 69.7628V96.8005C243.043 97.8476 243.267 98.6329 243.716 99.1564C244.165 99.6052 244.875 99.867 245.848 99.9418V106C245.025 106.075 244.314 106.15 243.716 106.224C243.118 106.299 242.669 106.299 242.37 106.224C240.5 106.15 239.079 105.551 238.106 104.429C237.134 103.307 236.611 102.111 236.536 100.839L236.424 96.5761C233.806 99.9418 230.403 102.56 226.214 104.429C222.026 106.224 217.763 107.122 213.425 107.122C209.685 107.122 206.282 106.337 203.216 104.766C200.224 103.12 197.868 100.951 196.148 98.2589C194.502 95.4916 193.679 92.4625 193.679 89.1716ZM232.834 93.6592C233.656 92.612 234.292 91.6023 234.741 90.63C235.19 89.6577 235.414 88.7976 235.414 88.0497V79.5233C232.871 78.551 230.216 77.803 227.448 77.2795C224.756 76.7559 222.026 76.4942 219.259 76.4942C213.799 76.4942 209.386 77.5787 206.02 79.7476C202.655 81.9166 200.972 84.871 200.972 88.6106C200.972 90.7796 201.533 92.8364 202.655 94.781C203.777 96.6509 205.422 98.2215 207.591 99.493C209.76 100.69 212.303 101.288 215.22 101.288C218.885 101.288 222.288 100.578 225.429 99.1564C228.645 97.7354 231.113 95.9029 232.834 93.6592ZM308.665 106H301.036V73.3528C301.036 66.4719 300.026 61.4608 298.007 58.3194C295.988 55.1033 292.809 53.4953 288.471 53.4953C285.479 53.4953 282.525 54.2432 279.608 55.7391C276.691 57.1602 274.111 59.1422 271.867 61.6851C269.698 64.1533 268.127 66.9954 267.155 70.2115V106H259.526V47.5493H266.482V60.7876C268.052 57.9455 270.109 55.4773 272.652 53.3831C275.195 51.2141 278.075 49.5313 281.291 48.3346C284.507 47.1379 287.835 46.5395 291.276 46.5395C294.492 46.5395 297.222 47.1379 299.465 48.3346C301.709 49.5313 303.504 51.2515 304.851 53.4953C306.197 55.6643 307.169 58.3194 307.767 61.4608C308.366 64.5273 308.665 67.9677 308.665 71.7822V106ZM350.176 107.122C345.988 107.122 342.098 106.337 338.508 104.766C334.918 103.12 331.814 100.914 329.197 98.1467C326.579 95.3046 324.522 92.0511 323.026 88.3862C321.605 84.7214 320.894 80.7948 320.894 76.6063C320.894 71.1465 322.129 66.1353 324.597 61.5729C327.14 57.0106 330.618 53.3831 335.03 50.6906C339.443 47.9232 344.454 46.5395 350.064 46.5395C355.823 46.5395 360.834 47.9232 365.097 50.6906C369.435 53.4579 372.838 57.1228 375.306 61.6851C377.775 66.1727 379.009 71.1091 379.009 76.4942C379.009 77.0925 379.009 77.6908 379.009 78.2892C379.009 78.8127 378.971 79.2241 378.896 79.5233H328.86C329.234 83.7117 330.393 87.4513 332.338 90.7422C334.357 93.9583 336.938 96.5387 340.079 98.4833C343.295 100.353 346.773 101.288 350.513 101.288C354.327 101.288 357.917 100.316 361.283 98.3711C364.723 96.4265 367.117 93.8835 368.463 90.7422L375.082 92.5373C373.885 95.3046 372.053 97.8102 369.585 100.054C367.117 102.298 364.2 104.055 360.834 105.327C357.543 106.524 353.99 107.122 350.176 107.122ZM328.636 74.026H371.829C371.529 69.7628 370.37 66.0231 368.351 62.807C366.406 59.5909 363.826 57.0854 360.61 55.2903C357.468 53.4205 353.99 52.4856 350.176 52.4856C346.362 52.4856 342.884 53.4205 339.742 55.2903C336.601 57.0854 334.021 59.6283 332.001 62.9192C330.057 66.1353 328.935 69.8376 328.636 74.026Z"/>
</mask>
<path d="M42.4076 106.561C36.125 106.561 30.8147 105.439 26.4767 103.195C22.1387 100.951 18.6983 97.9597 16.1553 94.2201C13.6123 90.4057 11.7425 86.1051 10.5458 81.3183C9.42392 76.5315 8.86297 71.5952 8.86297 66.5093V26.3454H16.6041V66.5093C16.6041 70.6229 17.0154 74.6617 17.8381 78.6258C18.7357 82.5898 20.1567 86.1425 22.1013 89.2838C24.046 92.4251 26.6637 94.9306 29.9546 96.8005C33.2455 98.5955 37.3591 99.493 42.2955 99.493C47.3814 99.493 51.5698 98.5581 54.8607 96.6883C58.2264 94.7437 60.8441 92.2007 62.7139 89.0594C64.6586 85.9181 66.0422 82.4028 66.865 78.5136C67.6877 74.5495 68.0991 70.5481 68.0991 66.5093V26.3454H75.9523V66.5093C75.9523 71.8196 75.354 76.9055 74.1573 81.7671C72.9606 86.6286 71.016 90.8918 68.3234 94.5567C65.7057 98.2215 62.2652 101.138 58.002 103.307C53.7388 105.476 48.5407 106.561 42.4076 106.561ZM122.289 107.122C117.428 107.122 113.052 105.85 109.163 103.307C105.349 100.764 102.319 97.6232 100.076 93.8835V129.896H92.4468V47.5493H99.2904V58.8804C101.609 55.2155 104.713 52.2612 108.602 50.0174C112.491 47.6988 116.642 46.5395 121.055 46.5395C125.094 46.5395 128.796 47.3997 132.162 49.1199C135.528 50.7654 138.445 53.0091 140.913 55.8513C143.381 58.6934 145.288 61.9469 146.634 65.6118C148.055 69.2018 148.766 72.9415 148.766 76.8307C148.766 82.2906 147.644 87.3391 145.4 91.9763C143.231 96.5387 140.165 100.204 136.201 102.971C132.237 105.738 127.6 107.122 122.289 107.122ZM120.158 100.391C123.374 100.391 126.253 99.7548 128.796 98.4833C131.339 97.137 133.508 95.342 135.303 93.0982C137.173 90.8544 138.594 88.3488 139.566 85.5815C140.539 82.7394 141.025 79.8224 141.025 76.8307C141.025 73.6894 140.464 70.6977 139.342 67.8556C138.295 65.0134 136.762 62.5079 134.742 60.3389C132.723 58.1699 130.404 56.4496 127.787 55.1781C125.169 53.9067 122.327 53.2709 119.26 53.2709C117.315 53.2709 115.296 53.6449 113.202 54.3928C111.108 55.1407 109.088 56.2252 107.144 57.6463C105.274 58.9926 103.703 60.5258 102.432 62.2461C101.16 63.9663 100.375 65.7988 100.076 67.7434V85.6937C101.272 88.461 102.88 90.9666 104.9 93.2104C106.919 95.3794 109.238 97.137 111.856 98.4833C114.548 99.7548 117.315 100.391 120.158 100.391ZM188.86 103.195C188.261 103.42 187.326 103.831 186.055 104.429C184.783 105.028 183.25 105.551 181.455 106C179.66 106.449 177.716 106.673 175.621 106.673C173.452 106.673 171.395 106.262 169.451 105.439C167.581 104.616 166.085 103.382 164.963 101.737C163.841 100.017 163.28 97.9224 163.28 95.4542V53.6075H155.203V47.5493H163.28V27.8039H170.909V47.5493H184.372V53.6075H170.909V93.3226C171.059 95.4168 171.807 96.9874 173.153 98.0345C174.574 99.0816 176.182 99.6052 177.977 99.6052C180.071 99.6052 181.979 99.2686 183.699 98.5955C185.419 97.8476 186.466 97.324 186.84 97.0248L188.86 103.195ZM193.679 89.1716C193.679 85.5067 194.727 82.3654 196.821 79.7476C198.915 77.0551 201.794 74.9983 205.459 73.5772C209.199 72.0814 213.5 71.3334 218.361 71.3334C221.203 71.3334 224.158 71.5578 227.224 72.0066C230.291 72.4553 233.021 73.1285 235.414 74.026V69.0896C235.414 64.1533 233.955 60.2267 231.039 57.3097C228.122 54.3928 224.083 52.9344 218.922 52.9344C215.781 52.9344 212.677 53.5327 209.61 54.7294C206.619 55.8513 203.477 57.5341 200.186 59.7779L197.27 54.3928C201.084 51.7751 204.824 49.8304 208.488 48.559C212.153 47.2127 215.893 46.5395 219.707 46.5395C226.888 46.5395 232.572 48.5964 236.76 52.71C240.949 56.8236 243.043 62.5079 243.043 69.7628V96.8005C243.043 97.8476 243.267 98.6329 243.716 99.1564C244.165 99.6052 244.875 99.867 245.848 99.9418V106C245.025 106.075 244.314 106.15 243.716 106.224C243.118 106.299 242.669 106.299 242.37 106.224C240.5 106.15 239.079 105.551 238.106 104.429C237.134 103.307 236.611 102.111 236.536 100.839L236.424 96.5761C233.806 99.9418 230.403 102.56 226.214 104.429C222.026 106.224 217.763 107.122 213.425 107.122C209.685 107.122 206.282 106.337 203.216 104.766C200.224 103.12 197.868 100.951 196.148 98.2589C194.502 95.4916 193.679 92.4625 193.679 89.1716ZM232.834 93.6592C233.656 92.612 234.292 91.6023 234.741 90.63C235.19 89.6577 235.414 88.7976 235.414 88.0497V79.5233C232.871 78.551 230.216 77.803 227.448 77.2795C224.756 76.7559 222.026 76.4942 219.259 76.4942C213.799 76.4942 209.386 77.5787 206.02 79.7476C202.655 81.9166 200.972 84.871 200.972 88.6106C200.972 90.7796 201.533 92.8364 202.655 94.781C203.777 96.6509 205.422 98.2215 207.591 99.493C209.76 100.69 212.303 101.288 215.22 101.288C218.885 101.288 222.288 100.578 225.429 99.1564C228.645 97.7354 231.113 95.9029 232.834 93.6592ZM308.665 106H301.036V73.3528C301.036 66.4719 300.026 61.4608 298.007 58.3194C295.988 55.1033 292.809 53.4953 288.471 53.4953C285.479 53.4953 282.525 54.2432 279.608 55.7391C276.691 57.1602 274.111 59.1422 271.867 61.6851C269.698 64.1533 268.127 66.9954 267.155 70.2115V106H259.526V47.5493H266.482V60.7876C268.052 57.9455 270.109 55.4773 272.652 53.3831C275.195 51.2141 278.075 49.5313 281.291 48.3346C284.507 47.1379 287.835 46.5395 291.276 46.5395C294.492 46.5395 297.222 47.1379 299.465 48.3346C301.709 49.5313 303.504 51.2515 304.851 53.4953C306.197 55.6643 307.169 58.3194 307.767 61.4608C308.366 64.5273 308.665 67.9677 308.665 71.7822V106ZM350.176 107.122C345.988 107.122 342.098 106.337 338.508 104.766C334.918 103.12 331.814 100.914 329.197 98.1467C326.579 95.3046 324.522 92.0511 323.026 88.3862C321.605 84.7214 320.894 80.7948 320.894 76.6063C320.894 71.1465 322.129 66.1353 324.597 61.5729C327.14 57.0106 330.618 53.3831 335.03 50.6906C339.443 47.9232 344.454 46.5395 350.064 46.5395C355.823 46.5395 360.834 47.9232 365.097 50.6906C369.435 53.4579 372.838 57.1228 375.306 61.6851C377.775 66.1727 379.009 71.1091 379.009 76.4942C379.009 77.0925 379.009 77.6908 379.009 78.2892C379.009 78.8127 378.971 79.2241 378.896 79.5233H328.86C329.234 83.7117 330.393 87.4513 332.338 90.7422C334.357 93.9583 336.938 96.5387 340.079 98.4833C343.295 100.353 346.773 101.288 350.513 101.288C354.327 101.288 357.917 100.316 361.283 98.3711C364.723 96.4265 367.117 93.8835 368.463 90.7422L375.082 92.5373C373.885 95.3046 372.053 97.8102 369.585 100.054C367.117 102.298 364.2 104.055 360.834 105.327C357.543 106.524 353.99 107.122 350.176 107.122ZM328.636 74.026H371.829C371.529 69.7628 370.37 66.0231 368.351 62.807C366.406 59.5909 363.826 57.0854 360.61 55.2903C357.468 53.4205 353.99 52.4856 350.176 52.4856C346.362 52.4856 342.884 53.4205 339.742 55.2903C336.601 57.0854 334.021 59.6283 332.001 62.9192C330.057 66.1353 328.935 69.8376 328.636 74.026Z" fill="white"/>
<path d="M26.4767 103.195L26.9362 102.307L26.9362 102.307L26.4767 103.195ZM16.1553 94.2201L15.3232 94.7748L15.3284 94.7824L16.1553 94.2201ZM10.5458 81.3183L9.5722 81.5465L9.57388 81.5537L9.57567 81.5608L10.5458 81.3183ZM8.86297 26.3454V25.3454H7.86297V26.3454H8.86297ZM16.6041 26.3454H17.6041V25.3454H16.6041V26.3454ZM17.8381 78.6258L16.859 78.829L16.8608 78.8378L16.8628 78.8466L17.8381 78.6258ZM22.1013 89.2838L22.9516 88.7574L22.9516 88.7574L22.1013 89.2838ZM29.9546 96.8005L29.4606 97.6699L29.4681 97.6742L29.4758 97.6784L29.9546 96.8005ZM54.8607 96.6883L55.3547 97.5577L55.361 97.5541L54.8607 96.6883ZM62.7139 89.0594L61.8637 88.533L61.8591 88.5404L61.8547 88.5479L62.7139 89.0594ZM66.865 78.5136L67.8433 78.7205L67.8441 78.7168L66.865 78.5136ZM68.0991 26.3454V25.3454H67.0991V26.3454H68.0991ZM75.9523 26.3454H76.9523V25.3454H75.9523V26.3454ZM74.1573 81.7671L73.1863 81.528L73.1863 81.528L74.1573 81.7671ZM68.3234 94.5567L67.5175 93.9645L67.5097 93.9754L68.3234 94.5567ZM58.002 103.307L58.4554 104.199L58.4554 104.199L58.002 103.307ZM42.4076 105.561C36.2405 105.561 31.0973 104.459 26.9362 102.307L26.0173 104.083C30.5321 106.419 36.0096 107.561 42.4076 107.561V105.561ZM26.9362 102.307C22.7337 100.133 19.4243 97.2491 16.9822 93.6578L15.3284 94.7824C17.9722 98.6704 21.5437 101.77 26.0173 104.083L26.9362 102.307ZM16.9873 93.6654C14.5127 89.9534 12.687 85.7598 11.516 81.0758L9.57567 81.5608C10.798 86.4503 12.712 90.858 15.3232 94.7748L16.9873 93.6654ZM11.5194 81.0901C10.4157 76.3807 9.86297 71.521 9.86297 66.5093H7.86297C7.86297 71.6694 8.43218 76.6824 9.5722 81.5465L11.5194 81.0901ZM9.86297 66.5093V26.3454H7.86297V66.5093H9.86297ZM8.86297 27.3454H16.6041V25.3454H8.86297V27.3454ZM15.6041 26.3454V66.5093H17.6041V26.3454H15.6041ZM15.6041 66.5093C15.6041 70.6901 16.0222 74.797 16.859 78.829L18.8173 78.4225C18.0086 74.5264 17.6041 70.5557 17.6041 66.5093H15.6041ZM16.8628 78.8466C17.7824 82.9079 19.2426 86.5656 21.2511 89.8101L22.9516 88.7574C21.0708 85.7193 19.6889 82.2717 18.8134 78.4049L16.8628 78.8466ZM21.2511 89.8101C23.2861 93.0974 26.0278 95.7195 29.4606 97.6699L30.4486 95.931C27.2996 94.1418 24.8058 91.7527 22.9516 88.7574L21.2511 89.8101ZM29.4758 97.6784C32.9528 99.5749 37.243 100.493 42.2955 100.493V98.493C37.4752 98.493 33.5382 97.6161 30.4335 95.9226L29.4758 97.6784ZM42.2955 100.493C47.4973 100.493 51.8702 99.5376 55.3547 97.5577L54.3667 95.8188C51.2694 97.5786 47.2655 98.493 42.2955 98.493V100.493ZM55.361 97.5541C58.865 95.5296 61.6104 92.8684 63.5732 89.5709L61.8547 88.5479C60.0778 91.533 57.5878 93.9577 54.3604 95.8224L55.361 97.5541ZM63.5642 89.5857C65.5741 86.3389 66.9985 82.7142 67.8433 78.7205L65.8866 78.3066C65.086 82.0914 63.743 85.4972 61.8637 88.533L63.5642 89.5857ZM67.8441 78.7168C68.6807 74.6861 69.0991 70.6165 69.0991 66.5093H67.0991C67.0991 70.4797 66.6947 74.413 65.8858 78.3103L67.8441 78.7168ZM69.0991 66.5093V26.3454H67.0991V66.5093H69.0991ZM68.0991 27.3454H75.9523V25.3454H68.0991V27.3454ZM74.9523 26.3454V66.5093H76.9523V26.3454H74.9523ZM74.9523 66.5093C74.9523 71.7439 74.3626 76.7493 73.1863 81.528L75.1283 82.0061C76.3454 77.0617 76.9523 71.8953 76.9523 66.5093H74.9523ZM73.1863 81.528C72.0178 86.2751 70.1249 90.4157 67.5175 93.9646L69.1293 95.1487C71.907 91.368 73.9034 86.9821 75.1283 82.0061L73.1863 81.528ZM67.5097 93.9754C64.9912 97.5014 61.6776 100.315 57.5485 102.416L58.4554 104.199C62.8528 101.961 66.4202 98.9417 69.1372 95.1379L67.5097 93.9754ZM57.5485 102.416C53.4598 104.496 48.4262 105.561 42.4076 105.561V107.561C48.6551 107.561 54.0178 106.456 58.4554 104.199L57.5485 102.416ZM109.163 103.307L108.608 104.14L108.616 104.144L109.163 103.307ZM100.076 93.8835L100.933 93.369L99.0757 90.2732V93.8835H100.076ZM100.076 129.896V130.896H101.076V129.896H100.076ZM92.4468 129.896H91.4468V130.896H92.4468V129.896ZM92.4468 47.5493V46.5493H91.4468V47.5493H92.4468ZM99.2904 47.5493H100.29V46.5493H99.2904V47.5493ZM99.2904 58.8804H98.2904V62.3315L100.135 59.415L99.2904 58.8804ZM108.602 50.0174L109.102 50.8836L109.108 50.88L109.114 50.8764L108.602 50.0174ZM132.162 49.1199L131.707 50.0103L131.715 50.0144L131.723 50.0183L132.162 49.1199ZM140.913 55.8513L141.668 55.1956L141.668 55.1956L140.913 55.8513ZM146.634 65.6118L145.696 65.9566L145.7 65.9683L145.705 65.9798L146.634 65.6118ZM145.4 91.9763L144.5 91.5407L144.497 91.5469L145.4 91.9763ZM136.201 102.971L136.773 103.791L136.773 103.791L136.201 102.971ZM128.796 98.4833L129.243 99.3777L129.254 99.3725L129.264 99.3671L128.796 98.4833ZM135.303 93.0982L134.535 92.458L134.529 92.4657L134.522 92.4735L135.303 93.0982ZM139.566 85.5815L140.51 85.913L140.513 85.9052L139.566 85.5815ZM139.342 67.8556L138.404 68.2013L138.408 68.212L138.412 68.2227L139.342 67.8556ZM134.742 60.3389L134.01 61.0203L134.01 61.0203L134.742 60.3389ZM127.787 55.1781L127.35 56.0777L127.35 56.0777L127.787 55.1781ZM113.202 54.3928L113.538 55.3346L113.538 55.3346L113.202 54.3928ZM107.144 57.6463L107.728 58.4579L107.734 58.4537L107.144 57.6463ZM100.076 67.7434L99.0873 67.5913L99.0757 67.6669V67.7434H100.076ZM100.076 85.6937H99.0757V85.9006L99.1578 86.0906L100.076 85.6937ZM104.9 93.2104L104.157 93.8794L104.162 93.8856L104.168 93.8918L104.9 93.2104ZM111.856 98.4833L111.398 99.3726L111.413 99.3803L111.429 99.3875L111.856 98.4833ZM122.289 106.122C117.613 106.122 113.429 104.902 109.71 102.47L108.616 104.144C112.675 106.799 117.243 108.122 122.289 108.122V106.122ZM109.718 102.475C106.02 100.01 103.097 96.9752 100.933 93.369L99.2182 94.398C101.542 98.2711 104.677 101.519 108.608 104.14L109.718 102.475ZM99.0757 93.8835V129.896H101.076V93.8835H99.0757ZM100.076 128.896H92.4468V130.896H100.076V128.896ZM93.4468 129.896V47.5493H91.4468V129.896H93.4468ZM92.4468 48.5493H99.2904V46.5493H92.4468V48.5493ZM98.2904 47.5493V58.8804H100.29V47.5493H98.2904ZM100.135 59.415C102.364 55.892 105.348 53.0494 109.102 50.8836L108.102 49.1512C104.078 51.473 100.854 54.5391 98.4453 58.3458L100.135 59.415ZM109.114 50.8764C112.853 48.6476 116.828 47.5395 121.055 47.5395V45.5395C116.457 45.5395 112.13 46.7501 108.09 49.1585L109.114 50.8764ZM121.055 47.5395C124.947 47.5395 128.492 48.367 131.707 50.0103L132.617 48.2295C129.101 46.4323 125.241 45.5395 121.055 45.5395V47.5395ZM131.723 50.0183C134.967 51.6045 137.777 53.7656 140.158 56.507L141.668 55.1956C139.112 52.2527 136.088 49.9262 132.601 48.2215L131.723 50.0183ZM140.158 56.507C142.543 59.2541 144.39 62.4013 145.696 65.9566L147.573 65.267C146.186 61.4925 144.218 58.1327 141.668 55.1956L140.158 56.507ZM145.705 65.9798C147.079 69.4518 147.766 73.0666 147.766 76.8307H149.766C149.766 72.8164 149.032 68.9518 147.564 65.2437L145.705 65.9798ZM147.766 76.8307C147.766 82.149 146.674 87.0475 144.5 91.5407L146.3 92.4119C148.614 87.6308 149.766 82.4322 149.766 76.8307H147.766ZM144.497 91.5469C142.399 95.96 139.444 99.4874 135.628 102.151L136.773 103.791C140.886 100.92 144.063 97.1174 146.303 92.4057L144.497 91.5469ZM135.628 102.151C131.849 104.79 127.416 106.122 122.289 106.122V108.122C127.783 108.122 132.625 106.687 136.773 103.791L135.628 102.151ZM120.158 101.391C123.508 101.391 126.544 100.727 129.243 99.3777L128.349 97.5889C125.962 98.7823 123.239 99.3905 120.158 99.3905V101.391ZM129.264 99.3671C131.928 97.9569 134.203 96.0737 136.084 93.7229L134.522 92.4735C132.813 94.6103 130.75 96.3172 128.328 97.5995L129.264 99.3671ZM136.071 93.7384C138.018 91.4026 139.498 88.7924 140.51 85.913L138.623 85.25C137.69 87.9053 136.328 90.3063 134.535 92.458L136.071 93.7384ZM140.513 85.9052C141.52 82.9593 142.025 79.933 142.025 76.8307H140.025C140.025 79.7119 139.557 82.5194 138.62 85.2578L140.513 85.9052ZM142.025 76.8307C142.025 73.5673 141.442 70.4507 140.272 67.4884L138.412 68.2227C139.486 70.9446 140.025 73.8115 140.025 76.8307H142.025ZM140.28 67.5099C139.188 64.546 137.586 61.9257 135.474 59.6574L134.01 61.0203C135.937 63.09 137.401 65.4808 138.404 68.2013L140.28 67.5099ZM135.474 59.6574C133.372 57.3999 130.954 55.605 128.223 54.2786L127.35 56.0777C129.854 57.2942 132.073 58.9399 134.01 61.0203L135.474 59.6574ZM128.223 54.2786C125.462 52.9375 122.47 52.2709 119.26 52.2709V54.2709C122.184 54.2709 124.875 54.8758 127.35 56.0777L128.223 54.2786ZM119.26 52.2709C117.186 52.2709 115.052 52.67 112.866 53.4511L113.538 55.3346C115.54 54.6197 117.445 54.2709 119.26 54.2709V52.2709ZM112.866 53.4511C110.674 54.2339 108.569 55.3658 106.554 56.8389L107.734 58.4537C109.607 57.0847 111.542 56.0476 113.538 55.3346L112.866 53.4511ZM106.559 56.8348C104.612 58.2369 102.965 59.8419 101.627 61.6517L103.236 62.8405C104.441 61.2098 105.936 59.7482 107.728 58.4578L106.559 56.8348ZM101.627 61.6517C100.268 63.4906 99.4132 65.4728 99.0873 67.5913L101.064 67.8954C101.336 66.1247 102.052 64.442 103.236 62.8405L101.627 61.6517ZM99.0757 67.7434V85.6937H101.076V67.7434H99.0757ZM99.1578 86.0906C100.398 88.9576 102.065 91.5551 104.157 93.8794L105.643 92.5414C103.696 90.3782 102.147 87.9644 100.994 85.2968L99.1578 86.0906ZM104.168 93.8918C106.266 96.1449 108.677 97.9731 111.398 99.3726L112.313 97.594C109.799 96.301 107.573 94.6139 105.632 92.529L104.168 93.8918ZM111.429 99.3875C114.248 100.719 117.161 101.391 120.158 101.391V99.3905C117.47 99.3905 114.848 98.7906 112.283 97.5791L111.429 99.3875ZM188.86 103.195L189.211 104.132L190.108 103.795L189.81 102.884L188.86 103.195ZM186.055 104.429L186.481 105.334L186.481 105.334L186.055 104.429ZM181.455 106L181.213 105.03L181.213 105.03L181.455 106ZM169.451 105.439L169.048 106.354L169.055 106.357L169.061 106.36L169.451 105.439ZM164.963 101.737L164.126 102.283L164.131 102.292L164.137 102.3L164.963 101.737ZM163.28 53.6075H164.28V52.6075H163.28V53.6075ZM155.203 53.6075H154.203V54.6075H155.203V53.6075ZM155.203 47.5493V46.5493H154.203V47.5493H155.203ZM163.28 47.5493V48.5493H164.28V47.5493H163.28ZM163.28 27.8039V26.8039H162.28V27.8039H163.28ZM170.909 27.8039H171.909V26.8039H170.909V27.8039ZM170.909 47.5493H169.909V48.5493H170.909V47.5493ZM184.372 47.5493H185.372V46.5493H184.372V47.5493ZM184.372 53.6075V54.6075H185.372V53.6075H184.372ZM170.909 53.6075V52.6075H169.909V53.6075H170.909ZM170.909 93.3226H169.909V93.3583L169.912 93.3938L170.909 93.3226ZM173.153 98.0345L172.539 98.8239L172.549 98.8319L172.56 98.8396L173.153 98.0345ZM183.699 98.5955L184.063 99.5267L184.081 99.52L184.098 99.5126L183.699 98.5955ZM186.84 97.0248L187.791 96.7138L187.342 95.3428L186.216 96.244L186.84 97.0248ZM188.509 102.259C187.869 102.499 186.903 102.925 185.629 103.525L186.481 105.334C187.75 104.737 188.653 104.341 189.211 104.132L188.509 102.259ZM185.629 103.525C184.432 104.088 182.963 104.592 181.213 105.03L181.698 106.97C183.537 106.51 185.135 105.967 186.481 105.334L185.629 103.525ZM181.213 105.03C179.507 105.456 177.644 105.673 175.621 105.673V107.673C177.787 107.673 179.814 107.441 181.698 106.97L181.213 105.03ZM175.621 105.673C173.582 105.673 171.658 105.287 169.841 104.518L169.061 106.36C171.133 107.236 173.322 107.673 175.621 107.673V105.673ZM169.854 104.524C168.15 103.774 166.803 102.66 165.79 101.173L164.137 102.3C165.367 104.104 167.012 105.458 169.048 106.354L169.854 104.524ZM165.801 101.191C164.805 99.6631 164.28 97.768 164.28 95.4542H162.28C162.28 98.0767 162.878 100.37 164.126 102.283L165.801 101.191ZM164.28 95.4542V53.6075H162.28V95.4542H164.28ZM163.28 52.6075H155.203V54.6075H163.28V52.6075ZM156.203 53.6075V47.5493H154.203V53.6075H156.203ZM155.203 48.5493H163.28V46.5493H155.203V48.5493ZM164.28 47.5493V27.8039H162.28V47.5493H164.28ZM163.28 28.8039H170.909V26.8039H163.28V28.8039ZM169.909 27.8039V47.5493H171.909V27.8039H169.909ZM170.909 48.5493H184.372V46.5493H170.909V48.5493ZM183.372 47.5493V53.6075H185.372V47.5493H183.372ZM184.372 52.6075H170.909V54.6075H184.372V52.6075ZM169.909 53.6075V93.3226H171.909V53.6075H169.909ZM169.912 93.3938C170.077 95.7004 170.919 97.5635 172.539 98.8239L173.767 97.2452C172.695 96.4114 172.041 95.1332 171.907 93.2513L169.912 93.3938ZM172.56 98.8396C174.156 100.016 175.973 100.605 177.977 100.605V98.6052C176.392 98.6052 174.992 98.1477 173.746 97.2295L172.56 98.8396ZM177.977 100.605C180.18 100.605 182.213 100.251 184.063 99.5267L183.335 97.6642C181.745 98.2863 179.963 98.6052 177.977 98.6052V100.605ZM184.098 99.5126C184.966 99.1352 185.676 98.8093 186.222 98.5363C186.744 98.2752 187.186 98.0287 187.465 97.8057L186.216 96.244C186.12 96.3202 185.852 96.485 185.327 96.7475C184.826 96.998 184.152 97.3079 183.3 97.6784L184.098 99.5126ZM185.89 97.3359L187.909 103.506L189.81 102.884L187.791 96.7138L185.89 97.3359ZM196.821 79.7476L197.602 80.3724L197.61 80.3616L196.821 79.7476ZM205.459 73.5772L205.821 74.5096L205.831 74.5057L205.459 73.5772ZM227.224 72.0066L227.079 72.996L227.079 72.996L227.224 72.0066ZM235.414 74.026L235.063 74.9623L236.414 75.469V74.026H235.414ZM209.61 54.7294L209.962 55.6658L209.974 55.661L209.61 54.7294ZM200.186 59.7779L199.307 60.2542L199.835 61.2281L200.75 60.6041L200.186 59.7779ZM197.27 54.3928L196.704 53.5683L195.962 54.0776L196.39 54.8691L197.27 54.3928ZM208.488 48.559L208.816 49.5037L208.825 49.5007L208.833 49.4976L208.488 48.559ZM236.76 52.71L237.461 51.9965L236.76 52.71ZM243.716 99.1564L242.957 99.8072L242.982 99.8364L243.009 99.8635L243.716 99.1564ZM245.848 99.9418H246.848V99.0157L245.924 98.9447L245.848 99.9418ZM245.848 106L245.938 106.996L246.848 106.913V106H245.848ZM243.716 106.224L243.84 107.217L243.84 107.217L243.716 106.224ZM242.37 106.224L242.612 105.254L242.512 105.229L242.41 105.225L242.37 106.224ZM238.106 104.429L237.351 105.084L238.106 104.429ZM236.536 100.839L235.536 100.866L235.537 100.882L235.538 100.898L236.536 100.839ZM236.424 96.5761L237.423 96.5498L237.35 93.7565L235.634 95.9621L236.424 96.5761ZM226.214 104.429L226.608 105.348L226.615 105.346L226.622 105.342L226.214 104.429ZM203.216 104.766L202.734 105.642L202.747 105.649L202.76 105.656L203.216 104.766ZM196.148 98.2589L195.288 98.77L195.296 98.7838L195.305 98.7973L196.148 98.2589ZM232.834 93.6592L232.047 93.0413L232.04 93.0507L232.834 93.6592ZM234.741 90.63L233.833 90.211L233.833 90.211L234.741 90.63ZM235.414 79.5233H236.414V78.835L235.771 78.5892L235.414 79.5233ZM227.448 77.2795L227.258 78.2611L227.263 78.262L227.448 77.2795ZM202.655 94.781L201.788 95.2808L201.793 95.2882L201.797 95.2955L202.655 94.781ZM207.591 99.493L207.085 100.356L207.096 100.362L207.108 100.369L207.591 99.493ZM225.429 99.1564L225.025 98.2417L225.017 98.2453L225.429 99.1564ZM194.679 89.1716C194.679 85.7112 195.663 82.7959 197.602 80.3723L196.04 79.123C193.79 81.9349 192.679 85.3022 192.679 89.1716H194.679ZM197.61 80.3616C199.577 77.8326 202.299 75.8753 205.821 74.5096L205.098 72.6449C201.29 74.1212 198.253 76.2776 196.031 79.1337L197.61 80.3616ZM205.831 74.5057C209.431 73.0658 213.601 72.3334 218.361 72.3334V70.3334C213.398 70.3334 208.967 71.097 205.088 72.6487L205.831 74.5057ZM218.361 72.3334C221.151 72.3334 224.056 72.5537 227.079 72.996L227.369 71.0171C224.259 70.562 221.256 70.3334 218.361 70.3334V72.3334ZM227.079 72.996C230.09 73.4366 232.748 74.0944 235.063 74.9623L235.765 73.0897C233.293 72.1625 230.492 71.4741 227.369 71.0171L227.079 72.996ZM236.414 74.026V69.0896H234.414V74.026H236.414ZM236.414 69.0896C236.414 63.944 234.886 59.7432 231.746 56.6026L230.331 58.0168C233.025 60.7101 234.414 64.3627 234.414 69.0896H236.414ZM231.746 56.6026C228.597 53.4537 224.278 51.9344 218.922 51.9344V53.9344C223.888 53.9344 227.647 55.3319 230.331 58.0168L231.746 56.6026ZM218.922 51.9344C215.65 51.9344 212.424 52.5581 209.247 53.7978L209.974 55.661C212.93 54.5073 215.911 53.9344 218.922 53.9344V51.9344ZM209.259 53.7931C206.177 54.9489 202.965 56.6734 199.623 58.9517L200.75 60.6041C203.99 58.3949 207.06 56.7536 209.961 55.6657L209.259 53.7931ZM201.066 59.3016L198.149 53.9165L196.39 54.8691L199.307 60.2542L201.066 59.3016ZM197.835 55.2173C201.59 52.6407 205.25 50.7409 208.816 49.5037L208.161 47.6142C204.397 48.9199 200.578 50.9094 196.704 53.5683L197.835 55.2173ZM208.833 49.4976C212.39 48.1909 216.013 47.5395 219.707 47.5395V45.5395C215.773 45.5395 211.916 46.2344 208.144 47.6203L208.833 49.4976ZM219.707 47.5395C226.687 47.5395 232.098 49.5328 236.06 53.4234L237.461 51.9965C233.046 47.6599 227.088 45.5395 219.707 45.5395V47.5395ZM236.06 53.4234C240.013 57.3066 242.043 62.7089 242.043 69.7628H244.043C244.043 62.3068 241.884 56.3406 237.461 51.9965L236.06 53.4234ZM242.043 69.7628V96.8005H244.043V69.7628H242.043ZM242.043 96.8005C242.043 97.9672 242.29 99.0289 242.957 99.8072L244.475 98.5056C244.245 98.2369 244.043 97.7279 244.043 96.8005H242.043ZM243.009 99.8635C243.697 100.551 244.683 100.855 245.771 100.939L245.924 98.9447C245.068 98.8788 244.633 98.6592 244.423 98.4493L243.009 99.8635ZM244.848 99.9418V106H246.848V99.9418H244.848ZM245.757 105.004C244.927 105.08 244.205 105.156 243.592 105.232L243.84 107.217C244.424 107.144 245.123 107.07 245.938 106.996L245.757 105.004ZM243.592 105.232C243.022 105.303 242.725 105.282 242.612 105.254L242.127 107.195C242.613 107.316 243.213 107.295 243.84 107.217L243.592 105.232ZM242.41 105.225C240.739 105.158 239.609 104.636 238.862 103.774L237.351 105.084C238.549 106.466 240.26 107.141 242.33 107.224L242.41 105.225ZM238.862 103.774C238.009 102.79 237.594 101.797 237.534 100.781L235.538 100.898C235.627 102.425 236.259 103.825 237.351 105.084L238.862 103.774ZM237.535 100.813L237.423 96.5498L235.424 96.6024L235.536 100.866L237.535 100.813ZM235.634 95.9621C233.125 99.1886 229.857 101.708 225.807 103.516L226.622 105.342C230.949 103.411 234.487 100.695 237.213 97.19L235.634 95.9621ZM225.82 103.51C221.75 105.255 217.621 106.122 213.425 106.122V108.122C217.905 108.122 222.302 107.194 226.608 105.348L225.82 103.51ZM213.425 106.122C209.83 106.122 206.585 105.368 203.671 103.876L202.76 105.656C205.979 107.305 209.54 108.122 213.425 108.122V106.122ZM203.697 103.89C200.842 102.319 198.614 100.262 196.99 97.7205L195.305 98.7973C197.121 101.641 199.606 103.922 202.734 105.642L203.697 103.89ZM197.007 97.7478C195.456 95.1387 194.679 92.2868 194.679 89.1716H192.679C192.679 92.6382 193.549 95.8445 195.288 98.77L197.007 97.7478ZM233.62 94.277C234.48 93.1828 235.161 92.1068 235.649 91.0491L233.833 90.211C233.424 91.0978 232.833 92.0413 232.047 93.0413L233.62 94.277ZM235.649 91.0491C236.134 89.998 236.414 88.9908 236.414 88.0497H234.414C234.414 88.6044 234.245 89.3175 233.833 90.211L235.649 91.0491ZM236.414 88.0497V79.5233H234.414V88.0497H236.414ZM235.771 78.5892C233.171 77.595 230.458 76.8311 227.634 76.2969L227.263 78.262C229.974 78.7749 232.571 79.507 235.057 80.4573L235.771 78.5892ZM227.639 76.2979C224.883 75.762 222.089 75.4942 219.259 75.4942V77.4942C221.963 77.4942 224.629 77.7499 227.258 78.2611L227.639 76.2979ZM219.259 75.4942C213.674 75.4942 209.055 76.6026 205.479 78.9071L206.562 80.5882C209.717 78.5547 213.923 77.4942 219.259 77.4942V75.4942ZM205.479 78.9071C201.851 81.2446 199.972 84.5033 199.972 88.6106H201.972C201.972 85.2386 203.458 82.5887 206.562 80.5882L205.479 78.9071ZM199.972 88.6106C199.972 90.9614 200.582 93.1898 201.788 95.2808L203.521 94.2813C202.483 92.4831 201.972 90.5979 201.972 88.6106H199.972ZM201.797 95.2955C203.018 97.3297 204.794 99.0125 207.085 100.356L208.097 98.6303C206.05 97.4305 204.535 95.972 203.512 94.2666L201.797 95.2955ZM207.108 100.369C209.449 101.66 212.164 102.288 215.22 102.288V100.288C212.442 100.288 210.071 99.7191 208.074 98.6174L207.108 100.369ZM215.22 102.288C219.018 102.288 222.562 101.551 225.841 100.068L225.017 98.2453C222.013 99.6042 218.752 100.288 215.22 100.288V102.288ZM225.833 100.071C229.166 98.5985 231.783 96.6732 233.627 94.2676L232.04 93.0507C230.444 95.1327 228.124 96.8722 225.025 98.2418L225.833 100.071ZM308.665 106V107H309.665V106H308.665ZM301.036 106H300.036V107H301.036V106ZM298.007 58.3194L297.16 58.8512L297.166 58.8602L298.007 58.3194ZM279.608 55.7391L280.046 56.6381L280.055 56.6336L280.064 56.6289L279.608 55.7391ZM271.867 61.6851L271.117 61.0235L271.116 61.025L271.867 61.6851ZM267.155 70.2115L266.198 69.9222L266.155 70.0637V70.2115H267.155ZM267.155 106V107H268.155V106H267.155ZM259.526 106H258.526V107H259.526V106ZM259.526 47.5493V46.5493H258.526V47.5493H259.526ZM266.482 47.5493H267.482V46.5493H266.482V47.5493ZM266.482 60.7876H265.482L267.357 61.2713L266.482 60.7876ZM272.652 53.3831L273.288 54.155L273.294 54.1495L273.301 54.1439L272.652 53.3831ZM281.291 48.3346L281.639 49.2718L281.639 49.2718L281.291 48.3346ZM299.465 48.3346L298.995 49.2169L298.995 49.2169L299.465 48.3346ZM304.851 53.4953L303.993 54.0098L303.997 54.0163L304.001 54.0227L304.851 53.4953ZM307.767 61.4608L306.785 61.6479L306.786 61.6523L307.767 61.4608ZM308.665 105H301.036V107H308.665V105ZM302.036 106V73.3528H300.036V106H302.036ZM302.036 73.3528C302.036 66.4185 301.027 61.1677 298.848 57.7787L297.166 58.8602C299.026 61.7538 300.036 66.5253 300.036 73.3528H302.036ZM298.854 57.7877C296.623 54.2344 293.095 52.4953 288.471 52.4953V54.4953C292.523 54.4953 295.352 55.9723 297.16 58.8512L298.854 57.7877ZM288.471 52.4953C285.306 52.4953 282.196 53.2881 279.152 54.8493L280.064 56.6289C282.854 55.1984 285.653 54.4953 288.471 54.4953V52.4953ZM279.17 54.8401C276.129 56.3215 273.444 58.3862 271.117 61.0235L272.617 62.3468C274.777 59.8982 277.253 57.9988 280.046 56.6381L279.17 54.8401ZM271.116 61.025C268.85 63.6031 267.21 66.5723 266.198 69.9222L268.112 70.5009C269.044 67.4185 270.546 64.7035 272.618 62.3452L271.116 61.025ZM266.155 70.2115V106H268.155V70.2115H266.155ZM267.155 105H259.526V107H267.155V105ZM260.526 106V47.5493H258.526V106H260.526ZM259.526 48.5493H266.482V46.5493H259.526V48.5493ZM265.482 47.5493V60.7876H267.482V47.5493H265.482ZM267.357 61.2713C268.866 58.5411 270.841 56.1703 273.288 54.155L272.016 52.6112C269.378 54.7843 267.239 57.3499 265.606 60.3039L267.357 61.2713ZM273.301 54.1439C275.753 52.0529 278.53 50.4288 281.639 49.2718L280.942 47.3974C277.619 48.6337 274.637 50.3753 272.003 52.6223L273.301 54.1439ZM281.639 49.2718C284.744 48.1167 287.954 47.5395 291.276 47.5395V45.5395C287.716 45.5395 284.27 46.159 280.942 47.3974L281.639 49.2718ZM291.276 47.5395C294.37 47.5395 296.929 48.1153 298.995 49.2169L299.936 47.4522C297.514 46.1605 294.613 45.5395 291.276 45.5395V47.5395ZM298.995 49.2169C301.074 50.3258 302.737 51.9167 303.993 54.0098L305.708 52.9808C304.271 50.5863 302.345 48.7368 299.936 47.4522L298.995 49.2169ZM304.001 54.0227C305.268 56.0647 306.204 58.5979 306.785 61.6479L308.75 61.2736C308.134 58.041 307.125 55.2639 305.7 52.9679L304.001 54.0227ZM306.786 61.6523C307.37 64.6437 307.665 68.0185 307.665 71.7822H309.665C309.665 67.917 309.362 64.4109 308.749 61.2692L306.786 61.6523ZM307.665 71.7822V106H309.665V71.7822H307.665ZM338.508 104.766L338.092 105.675L338.099 105.679L338.107 105.682L338.508 104.766ZM329.197 98.1467L328.461 98.8243L328.47 98.8339L329.197 98.1467ZM323.026 88.3862L322.094 88.7478L322.097 88.756L322.1 88.7641L323.026 88.3862ZM324.597 61.5729L323.723 61.086L323.717 61.0971L324.597 61.5729ZM335.03 50.6906L335.551 51.5443L335.562 51.5377L335.03 50.6906ZM365.097 50.6906L364.553 51.5294L364.559 51.5336L365.097 50.6906ZM375.306 61.6851L374.427 62.161L374.43 62.1671L375.306 61.6851ZM378.896 79.5233V80.5233H379.677L379.867 79.7658L378.896 79.5233ZM328.86 79.5233V78.5233H327.767L327.864 79.6122L328.86 79.5233ZM332.338 90.7422L331.477 91.251L331.484 91.2626L331.491 91.274L332.338 90.7422ZM340.079 98.4833L339.553 99.3336L339.564 99.3409L339.576 99.3478L340.079 98.4833ZM361.283 98.3711L360.791 97.5005L360.782 97.5052L361.283 98.3711ZM368.463 90.7422L368.725 89.7771L367.886 89.5497L367.544 90.3483L368.463 90.7422ZM375.082 92.5373L376 92.9342L376.458 91.8743L375.344 91.5721L375.082 92.5373ZM369.585 100.054L368.912 99.314L368.912 99.314L369.585 100.054ZM360.834 105.327L361.176 106.267L361.187 106.262L360.834 105.327ZM328.636 74.026L327.638 73.9547L327.562 75.026H328.636V74.026ZM371.829 74.026V75.026H372.901L372.826 73.956L371.829 74.026ZM368.351 62.807L367.495 63.3244L367.499 63.3317L367.504 63.3388L368.351 62.807ZM360.61 55.2903L360.098 56.1496L360.11 56.1567L360.122 56.1635L360.61 55.2903ZM339.742 55.2903L340.238 56.1586L340.246 56.1542L340.254 56.1496L339.742 55.2903ZM332.001 62.9192L331.149 62.3962L331.146 62.4018L332.001 62.9192ZM350.176 106.122C346.116 106.122 342.364 105.361 338.909 103.85L338.107 105.682C341.832 107.312 345.859 108.122 350.176 108.122V106.122ZM338.925 103.857C335.447 102.263 332.449 100.13 329.923 97.4595L328.47 98.8339C331.179 101.698 334.389 103.978 338.092 105.675L338.925 103.857ZM329.932 97.4693C327.397 94.717 325.404 91.5655 323.952 88.0083L322.1 88.7641C323.64 92.5367 325.76 95.8922 328.461 98.8242L329.932 97.4693ZM323.958 88.0247C322.585 84.4825 321.894 80.6793 321.894 76.6063H319.894C319.894 80.9102 320.625 84.9602 322.094 88.7478L323.958 88.0247ZM321.894 76.6063C321.894 71.3036 323.091 66.4573 325.476 62.0488L323.717 61.0971C321.166 65.8134 319.894 70.9893 319.894 76.6063H321.894ZM325.47 62.0598C327.93 57.6464 331.287 54.146 335.551 51.5442L334.51 49.8369C329.948 52.6203 326.349 56.3747 323.723 61.0861L325.47 62.0598ZM335.562 51.5377C339.803 48.878 344.627 47.5395 350.064 47.5395V45.5395C344.281 45.5395 339.083 46.9685 334.499 49.8434L335.562 51.5377ZM350.064 47.5395C355.656 47.5395 360.472 48.8808 364.553 51.5293L365.642 49.8518C361.195 46.9657 355.99 45.5395 350.064 45.5395V47.5395ZM364.559 51.5336C368.753 54.2088 372.039 57.7468 374.427 62.161L376.186 61.2093C373.638 56.4987 370.117 52.707 365.635 49.8475L364.559 51.5336ZM374.43 62.1671C376.813 66.4993 378.009 71.2686 378.009 76.4942H380.009C380.009 70.9495 378.736 65.8461 376.183 61.2032L374.43 62.1671ZM378.009 76.4942C378.009 76.4953 378.009 76.4965 378.009 76.4977C378.009 76.4988 378.009 76.5 378.009 76.5012C378.009 76.5023 378.009 76.5035 378.009 76.5047C378.009 76.5058 378.009 76.507 378.009 76.5082C378.009 76.5093 378.009 76.5105 378.009 76.5117C378.009 76.5129 378.009 76.514 378.009 76.5152C378.009 76.5164 378.009 76.5175 378.009 76.5187C378.009 76.5199 378.009 76.521 378.009 76.5222C378.009 76.5234 378.009 76.5245 378.009 76.5257C378.009 76.5269 378.009 76.528 378.009 76.5292C378.009 76.5304 378.009 76.5315 378.009 76.5327C378.009 76.5339 378.009 76.5351 378.009 76.5362C378.009 76.5374 378.009 76.5386 378.009 76.5397C378.009 76.5409 378.009 76.5421 378.009 76.5432C378.009 76.5444 378.009 76.5456 378.009 76.5467C378.009 76.5479 378.009 76.5491 378.009 76.5502C378.009 76.5514 378.009 76.5526 378.009 76.5538C378.009 76.5549 378.009 76.5561 378.009 76.5573C378.009 76.5584 378.009 76.5596 378.009 76.5608C378.009 76.5619 378.009 76.5631 378.009 76.5643C378.009 76.5654 378.009 76.5666 378.009 76.5678C378.009 76.5689 378.009 76.5701 378.009 76.5713C378.009 76.5725 378.009 76.5736 378.009 76.5748C378.009 76.576 378.009 76.5771 378.009 76.5783C378.009 76.5795 378.009 76.5806 378.009 76.5818C378.009 76.583 378.009 76.5841 378.009 76.5853C378.009 76.5865 378.009 76.5876 378.009 76.5888C378.009 76.59 378.009 76.5911 378.009 76.5923C378.009 76.5935 378.009 76.5947 378.009 76.5958C378.009 76.597 378.009 76.5982 378.009 76.5993C378.009 76.6005 378.009 76.6017 378.009 76.6028C378.009 76.604 378.009 76.6052 378.009 76.6063C378.009 76.6075 378.009 76.6087 378.009 76.6098C378.009 76.611 378.009 76.6122 378.009 76.6134C378.009 76.6145 378.009 76.6157 378.009 76.6169C378.009 76.618 378.009 76.6192 378.009 76.6204C378.009 76.6215 378.009 76.6227 378.009 76.6239C378.009 76.625 378.009 76.6262 378.009 76.6274C378.009 76.6285 378.009 76.6297 378.009 76.6309C378.009 76.6321 378.009 76.6332 378.009 76.6344C378.009 76.6356 378.009 76.6367 378.009 76.6379C378.009 76.6391 378.009 76.6402 378.009 76.6414C378.009 76.6426 378.009 76.6437 378.009 76.6449C378.009 76.6461 378.009 76.6472 378.009 76.6484C378.009 76.6496 378.009 76.6508 378.009 76.6519C378.009 76.6531 378.009 76.6543 378.009 76.6554C378.009 76.6566 378.009 76.6578 378.009 76.6589C378.009 76.6601 378.009 76.6613 378.009 76.6624C378.009 76.6636 378.009 76.6648 378.009 76.6659C378.009 76.6671 378.009 76.6683 378.009 76.6694C378.009 76.6706 378.009 76.6718 378.009 76.673C378.009 76.6741 378.009 76.6753 378.009 76.6765C378.009 76.6776 378.009 76.6788 378.009 76.68C378.009 76.6811 378.009 76.6823 378.009 76.6835C378.009 76.6846 378.009 76.6858 378.009 76.687C378.009 76.6881 378.009 76.6893 378.009 76.6905C378.009 76.6917 378.009 76.6928 378.009 76.694C378.009 76.6952 378.009 76.6963 378.009 76.6975C378.009 76.6987 378.009 76.6998 378.009 76.701C378.009 76.7022 378.009 76.7033 378.009 76.7045C378.009 76.7057 378.009 76.7068 378.009 76.708C378.009 76.7092 378.009 76.7104 378.009 76.7115C378.009 76.7127 378.009 76.7139 378.009 76.715C378.009 76.7162 378.009 76.7174 378.009 76.7185C378.009 76.7197 378.009 76.7209 378.009 76.722C378.009 76.7232 378.009 76.7244 378.009 76.7255C378.009 76.7267 378.009 76.7279 378.009 76.729C378.009 76.7302 378.009 76.7314 378.009 76.7326C378.009 76.7337 378.009 76.7349 378.009 76.7361C378.009 76.7372 378.009 76.7384 378.009 76.7396C378.009 76.7407 378.009 76.7419 378.009 76.7431C378.009 76.7442 378.009 76.7454 378.009 76.7466C378.009 76.7477 378.009 76.7489 378.009 76.7501C378.009 76.7513 378.009 76.7524 378.009 76.7536C378.009 76.7548 378.009 76.7559 378.009 76.7571C378.009 76.7583 378.009 76.7594 378.009 76.7606C378.009 76.7618 378.009 76.7629 378.009 76.7641C378.009 76.7653 378.009 76.7664 378.009 76.7676C378.009 76.7688 378.009 76.77 378.009 76.7711C378.009 76.7723 378.009 76.7735 378.009 76.7746C378.009 76.7758 378.009 76.777 378.009 76.7781C378.009 76.7793 378.009 76.7805 378.009 76.7816C378.009 76.7828 378.009 76.784 378.009 76.7851C378.009 76.7863 378.009 76.7875 378.009 76.7886C378.009 76.7898 378.009 76.791 378.009 76.7922C378.009 76.7933 378.009 76.7945 378.009 76.7957C378.009 76.7968 378.009 76.798 378.009 76.7992C378.009 76.8003 378.009 76.8015 378.009 76.8027C378.009 76.8038 378.009 76.805 378.009 76.8062C378.009 76.8073 378.009 76.8085 378.009 76.8097C378.009 76.8109 378.009 76.812 378.009 76.8132C378.009 76.8144 378.009 76.8155 378.009 76.8167C378.009 76.8179 378.009 76.819 378.009 76.8202C378.009 76.8214 378.009 76.8225 378.009 76.8237C378.009 76.8249 378.009 76.826 378.009 76.8272C378.009 76.8284 378.009 76.8296 378.009 76.8307C378.009 76.8319 378.009 76.8331 378.009 76.8342C378.009 76.8354 378.009 76.8366 378.009 76.8377C378.009 76.8389 378.009 76.8401 378.009 76.8412C378.009 76.8424 378.009 76.8436 378.009 76.8447C378.009 76.8459 378.009 76.8471 378.009 76.8483C378.009 76.8494 378.009 76.8506 378.009 76.8518C378.009 76.8529 378.009 76.8541 378.009 76.8553C378.009 76.8564 378.009 76.8576 378.009 76.8588C378.009 76.8599 378.009 76.8611 378.009 76.8623C378.009 76.8634 378.009 76.8646 378.009 76.8658C378.009 76.8669 378.009 76.8681 378.009 76.8693C378.009 76.8705 378.009 76.8716 378.009 76.8728C378.009 76.874 378.009 76.8751 378.009 76.8763C378.009 76.8775 378.009 76.8786 378.009 76.8798C378.009 76.881 378.009 76.8821 378.009 76.8833C378.009 76.8845 378.009 76.8856 378.009 76.8868C378.009 76.888 378.009 76.8892 378.009 76.8903C378.009 76.8915 378.009 76.8927 378.009 76.8938C378.009 76.895 378.009 76.8962 378.009 76.8973C378.009 76.8985 378.009 76.8997 378.009 76.9008C378.009 76.902 378.009 76.9032 378.009 76.9043C378.009 76.9055 378.009 76.9067 378.009 76.9079C378.009 76.909 378.009 76.9102 378.009 76.9114C378.009 76.9125 378.009 76.9137 378.009 76.9149C378.009 76.916 378.009 76.9172 378.009 76.9184C378.009 76.9195 378.009 76.9207 378.009 76.9219C378.009 76.923 378.009 76.9242 378.009 76.9254C378.009 76.9265 378.009 76.9277 378.009 76.9289C378.009 76.9301 378.009 76.9312 378.009 76.9324C378.009 76.9336 378.009 76.9347 378.009 76.9359C378.009 76.9371 378.009 76.9382 378.009 76.9394C378.009 76.9406 378.009 76.9417 378.009 76.9429C378.009 76.9441 378.009 76.9452 378.009 76.9464C378.009 76.9476 378.009 76.9488 378.009 76.9499C378.009 76.9511 378.009 76.9523 378.009 76.9534C378.009 76.9546 378.009 76.9558 378.009 76.9569C378.009 76.9581 378.009 76.9593 378.009 76.9604C378.009 76.9616 378.009 76.9628 378.009 76.9639C378.009 76.9651 378.009 76.9663 378.009 76.9675C378.009 76.9686 378.009 76.9698 378.009 76.971C378.009 76.9721 378.009 76.9733 378.009 76.9745C378.009 76.9756 378.009 76.9768 378.009 76.978C378.009 76.9791 378.009 76.9803 378.009 76.9815C378.009 76.9826 378.009 76.9838 378.009 76.985C378.009 76.9861 378.009 76.9873 378.009 76.9885C378.009 76.9897 378.009 76.9908 378.009 76.992C378.009 76.9932 378.009 76.9943 378.009 76.9955C378.009 76.9967 378.009 76.9978 378.009 76.999C378.009 77.0002 378.009 77.0013 378.009 77.0025C378.009 77.0037 378.009 77.0048 378.009 77.006C378.009 77.0072 378.009 77.0084 378.009 77.0095C378.009 77.0107 378.009 77.0119 378.009 77.013C378.009 77.0142 378.009 77.0154 378.009 77.0165C378.009 77.0177 378.009 77.0189 378.009 77.02C378.009 77.0212 378.009 77.0224 378.009 77.0235C378.009 77.0247 378.009 77.0259 378.009 77.0271C378.009 77.0282 378.009 77.0294 378.009 77.0306C378.009 77.0317 378.009 77.0329 378.009 77.0341C378.009 77.0352 378.009 77.0364 378.009 77.0376C378.009 77.0387 378.009 77.0399 378.009 77.0411C378.009 77.0422 378.009 77.0434 378.009 77.0446C378.009 77.0458 378.009 77.0469 378.009 77.0481C378.009 77.0493 378.009 77.0504 378.009 77.0516C378.009 77.0528 378.009 77.0539 378.009 77.0551C378.009 77.0563 378.009 77.0574 378.009 77.0586C378.009 77.0598 378.009 77.0609 378.009 77.0621C378.009 77.0633 378.009 77.0644 378.009 77.0656C378.009 77.0668 378.009 77.068 378.009 77.0691C378.009 77.0703 378.009 77.0715 378.009 77.0726C378.009 77.0738 378.009 77.075 378.009 77.0761C378.009 77.0773 378.009 77.0785 378.009 77.0796C378.009 77.0808 378.009 77.082 378.009 77.0831C378.009 77.0843 378.009 77.0855 378.009 77.0867C378.009 77.0878 378.009 77.089 378.009 77.0902C378.009 77.0913 378.009 77.0925 378.009 77.0937C378.009 77.0948 378.009 77.096 378.009 77.0972C378.009 77.0983 378.009 77.0995 378.009 77.1007C378.009 77.1018 378.009 77.103 378.009 77.1042C378.009 77.1054 378.009 77.1065 378.009 77.1077C378.009 77.1089 378.009 77.11 378.009 77.1112C378.009 77.1124 378.009 77.1135 378.009 77.1147C378.009 77.1159 378.009 77.117 378.009 77.1182C378.009 77.1194 378.009 77.1205 378.009 77.1217C378.009 77.1229 378.009 77.124 378.009 77.1252C378.009 77.1264 378.009 77.1276 378.009 77.1287C378.009 77.1299 378.009 77.1311 378.009 77.1322C378.009 77.1334 378.009 77.1346 378.009 77.1357C378.009 77.1369 378.009 77.1381 378.009 77.1392C378.009 77.1404 378.009 77.1416 378.009 77.1427C378.009 77.1439 378.009 77.1451 378.009 77.1463C378.009 77.1474 378.009 77.1486 378.009 77.1498C378.009 77.1509 378.009 77.1521 378.009 77.1533C378.009 77.1544 378.009 77.1556 378.009 77.1568C378.009 77.1579 378.009 77.1591 378.009 77.1603C378.009 77.1614 378.009 77.1626 378.009 77.1638C378.009 77.165 378.009 77.1661 378.009 77.1673C378.009 77.1685 378.009 77.1696 378.009 77.1708C378.009 77.172 378.009 77.1731 378.009 77.1743C378.009 77.1755 378.009 77.1766 378.009 77.1778C378.009 77.179 378.009 77.1801 378.009 77.1813C378.009 77.1825 378.009 77.1836 378.009 77.1848C378.009 77.186 378.009 77.1872 378.009 77.1883C378.009 77.1895 378.009 77.1907 378.009 77.1918C378.009 77.193 378.009 77.1942 378.009 77.1953C378.009 77.1965 378.009 77.1977 378.009 77.1988C378.009 77.2 378.009 77.2012 378.009 77.2023C378.009 77.2035 378.009 77.2047 378.009 77.2059C378.009 77.207 378.009 77.2082 378.009 77.2094C378.009 77.2105 378.009 77.2117 378.009 77.2129C378.009 77.214 378.009 77.2152 378.009 77.2164C378.009 77.2175 378.009 77.2187 378.009 77.2199C378.009 77.221 378.009 77.2222 378.009 77.2234C378.009 77.2246 378.009 77.2257 378.009 77.2269C378.009 77.2281 378.009 77.2292 378.009 77.2304C378.009 77.2316 378.009 77.2327 378.009 77.2339C378.009 77.2351 378.009 77.2362 378.009 77.2374C378.009 77.2386 378.009 77.2397 378.009 77.2409C378.009 77.2421 378.009 77.2433 378.009 77.2444C378.009 77.2456 378.009 77.2468 378.009 77.2479C378.009 77.2491 378.009 77.2503 378.009 77.2514C378.009 77.2526 378.009 77.2538 378.009 77.2549C378.009 77.2561 378.009 77.2573 378.009 77.2584C378.009 77.2596 378.009 77.2608 378.009 77.2619C378.009 77.2631 378.009 77.2643 378.009 77.2655C378.009 77.2666 378.009 77.2678 378.009 77.269C378.009 77.2701 378.009 77.2713 378.009 77.2725C378.009 77.2736 378.009 77.2748 378.009 77.276C378.009 77.2771 378.009 77.2783 378.009 77.2795C378.009 77.2806 378.009 77.2818 378.009 77.283C378.009 77.2842 378.009 77.2853 378.009 77.2865C378.009 77.2877 378.009 77.2888 378.009 77.29C378.009 77.2912 378.009 77.2923 378.009 77.2935C378.009 77.2947 378.009 77.2958 378.009 77.297C378.009 77.2982 378.009 77.2993 378.009 77.3005C378.009 77.3017 378.009 77.3029 378.009 77.304C378.009 77.3052 378.009 77.3064 378.009 77.3075C378.009 77.3087 378.009 77.3099 378.009 77.311C378.009 77.3122 378.009 77.3134 378.009 77.3145C378.009 77.3157 378.009 77.3169 378.009 77.318C378.009 77.3192 378.009 77.3204 378.009 77.3215C378.009 77.3227 378.009 77.3239 378.009 77.3251C378.009 77.3262 378.009 77.3274 378.009 77.3286C378.009 77.3297 378.009 77.3309 378.009 77.3321C378.009 77.3332 378.009 77.3344 378.009 77.3356C378.009 77.3367 378.009 77.3379 378.009 77.3391C378.009 77.3402 378.009 77.3414 378.009 77.3426C378.009 77.3438 378.009 77.3449 378.009 77.3461C378.009 77.3473 378.009 77.3484 378.009 77.3496C378.009 77.3508 378.009 77.3519 378.009 77.3531C378.009 77.3543 378.009 77.3554 378.009 77.3566C378.009 77.3578 378.009 77.3589 378.009 77.3601C378.009 77.3613 378.009 77.3625 378.009 77.3636C378.009 77.3648 378.009 77.366 378.009 77.3671C378.009 77.3683 378.009 77.3695 378.009 77.3706C378.009 77.3718 378.009 77.373 378.009 77.3741C378.009 77.3753 378.009 77.3765 378.009 77.3776C378.009 77.3788 378.009 77.38 378.009 77.3812C378.009 77.3823 378.009 77.3835 378.009 77.3847C378.009 77.3858 378.009 77.387 378.009 77.3882C378.009 77.3893 378.009 77.3905 378.009 77.3917C378.009 77.3928 378.009 77.394 378.009 77.3952C378.009 77.3963 378.009 77.3975 378.009 77.3987C378.009 77.3998 378.009 77.401 378.009 77.4022C378.009 77.4034 378.009 77.4045 378.009 77.4057C378.009 77.4069 378.009 77.408 378.009 77.4092C378.009 77.4104 378.009 77.4115 378.009 77.4127C378.009 77.4139 378.009 77.415 378.009 77.4162C378.009 77.4174 378.009 77.4185 378.009 77.4197C378.009 77.4209 378.009 77.4221 378.009 77.4232C378.009 77.4244 378.009 77.4256 378.009 77.4267C378.009 77.4279 378.009 77.4291 378.009 77.4302C378.009 77.4314 378.009 77.4326 378.009 77.4337C378.009 77.4349 378.009 77.4361 378.009 77.4372C378.009 77.4384 378.009 77.4396 378.009 77.4408C378.009 77.4419 378.009 77.4431 378.009 77.4443C378.009 77.4454 378.009 77.4466 378.009 77.4478C378.009 77.4489 378.009 77.4501 378.009 77.4513C378.009 77.4524 378.009 77.4536 378.009 77.4548C378.009 77.4559 378.009 77.4571 378.009 77.4583C378.009 77.4594 378.009 77.4606 378.009 77.4618C378.009 77.463 378.009 77.4641 378.009 77.4653C378.009 77.4665 378.009 77.4676 378.009 77.4688C378.009 77.47 378.009 77.4711 378.009 77.4723C378.009 77.4735 378.009 77.4746 378.009 77.4758C378.009 77.477 378.009 77.4781 378.009 77.4793C378.009 77.4805 378.009 77.4817 378.009 77.4828C378.009 77.484 378.009 77.4852 378.009 77.4863C378.009 77.4875 378.009 77.4887 378.009 77.4898C378.009 77.491 378.009 77.4922 378.009 77.4933C378.009 77.4945 378.009 77.4957 378.009 77.4968C378.009 77.498 378.009 77.4992 378.009 77.5004C378.009 77.5015 378.009 77.5027 378.009 77.5039C378.009 77.505 378.009 77.5062 378.009 77.5074C378.009 77.5085 378.009 77.5097 378.009 77.5109C378.009 77.512 378.009 77.5132 378.009 77.5144C378.009 77.5155 378.009 77.5167 378.009 77.5179C378.009 77.519 378.009 77.5202 378.009 77.5214C378.009 77.5226 378.009 77.5237 378.009 77.5249C378.009 77.5261 378.009 77.5272 378.009 77.5284C378.009 77.5296 378.009 77.5307 378.009 77.5319C378.009 77.5331 378.009 77.5342 378.009 77.5354C378.009 77.5366 378.009 77.5377 378.009 77.5389C378.009 77.5401 378.009 77.5413 378.009 77.5424C378.009 77.5436 378.009 77.5448 378.009 77.5459C378.009 77.5471 378.009 77.5483 378.009 77.5494C378.009 77.5506 378.009 77.5518 378.009 77.5529C378.009 77.5541 378.009 77.5553 378.009 77.5564C378.009 77.5576 378.009 77.5588 378.009 77.56C378.009 77.5611 378.009 77.5623 378.009 77.5635C378.009 77.5646 378.009 77.5658 378.009 77.567C378.009 77.5681 378.009 77.5693 378.009 77.5705C378.009 77.5716 378.009 77.5728 378.009 77.574C378.009 77.5751 378.009 77.5763 378.009 77.5775C378.009 77.5787 378.009 77.5798 378.009 77.581C378.009 77.5822 378.009 77.5833 378.009 77.5845C378.009 77.5857 378.009 77.5868 378.009 77.588C378.009 77.5892 378.009 77.5903 378.009 77.5915C378.009 77.5927 378.009 77.5938 378.009 77.595C378.009 77.5962 378.009 77.5973 378.009 77.5985C378.009 77.5997 378.009 77.6009 378.009 77.602C378.009 77.6032 378.009 77.6044 378.009 77.6055C378.009 77.6067 378.009 77.6079 378.009 77.609C378.009 77.6102 378.009 77.6114 378.009 77.6125C378.009 77.6137 378.009 77.6149 378.009 77.616C378.009 77.6172 378.009 77.6184 378.009 77.6196C378.009 77.6207 378.009 77.6219 378.009 77.6231C378.009 77.6242 378.009 77.6254 378.009 77.6266C378.009 77.6277 378.009 77.6289 378.009 77.6301C378.009 77.6312 378.009 77.6324 378.009 77.6336C378.009 77.6347 378.009 77.6359 378.009 77.6371C378.009 77.6383 378.009 77.6394 378.009 77.6406C378.009 77.6418 378.009 77.6429 378.009 77.6441C378.009 77.6453 378.009 77.6464 378.009 77.6476C378.009 77.6488 378.009 77.6499 378.009 77.6511C378.009 77.6523 378.009 77.6534 378.009 77.6546C378.009 77.6558 378.009 77.6569 378.009 77.6581C378.009 77.6593 378.009 77.6605 378.009 77.6616C378.009 77.6628 378.009 77.664 378.009 77.6651C378.009 77.6663 378.009 77.6675 378.009 77.6686C378.009 77.6698 378.009 77.671 378.009 77.6721C378.009 77.6733 378.009 77.6745 378.009 77.6756C378.009 77.6768 378.009 77.678 378.009 77.6792C378.009 77.6803 378.009 77.6815 378.009 77.6827C378.009 77.6838 378.009 77.685 378.009 77.6862C378.009 77.6873 378.009 77.6885 378.009 77.6897C378.009 77.6908 378.009 77.692 378.009 77.6932C378.009 77.6943 378.009 77.6955 378.009 77.6967C378.009 77.6979 378.009 77.699 378.009 77.7002C378.009 77.7014 378.009 77.7025 378.009 77.7037C378.009 77.7049 378.009 77.706 378.009 77.7072C378.009 77.7084 378.009 77.7095 378.009 77.7107C378.009 77.7119 378.009 77.713 378.009 77.7142C378.009 77.7154 378.009 77.7166 378.009 77.7177C378.009 77.7189 378.009 77.7201 378.009 77.7212C378.009 77.7224 378.009 77.7236 378.009 77.7247C378.009 77.7259 378.009 77.7271 378.009 77.7282C378.009 77.7294 378.009 77.7306 378.009 77.7317C378.009 77.7329 378.009 77.7341 378.009 77.7352C378.009 77.7364 378.009 77.7376 378.009 77.7388C378.009 77.7399 378.009 77.7411 378.009 77.7423C378.009 77.7434 378.009 77.7446 378.009 77.7458C378.009 77.7469 378.009 77.7481 378.009 77.7493C378.009 77.7504 378.009 77.7516 378.009 77.7528C378.009 77.7539 378.009 77.7551 378.009 77.7563C378.009 77.7575 378.009 77.7586 378.009 77.7598C378.009 77.761 378.009 77.7621 378.009 77.7633C378.009 77.7645 378.009 77.7656 378.009 77.7668C378.009 77.768 378.009 77.7691 378.009 77.7703C378.009 77.7715 378.009 77.7726 378.009 77.7738C378.009 77.775 378.009 77.7762 378.009 77.7773C378.009 77.7785 378.009 77.7797 378.009 77.7808C378.009 77.782 378.009 77.7832 378.009 77.7843C378.009 77.7855 378.009 77.7867 378.009 77.7878C378.009 77.789 378.009 77.7902 378.009 77.7913C378.009 77.7925 378.009 77.7937 378.009 77.7948C378.009 77.796 378.009 77.7972 378.009 77.7984C378.009 77.7995 378.009 77.8007 378.009 77.8019C378.009 77.803 378.009 77.8042 378.009 77.8054C378.009 77.8065 378.009 77.8077 378.009 77.8089C378.009 77.81 378.009 77.8112 378.009 77.8124C378.009 77.8135 378.009 77.8147 378.009 77.8159C378.009 77.8171 378.009 77.8182 378.009 77.8194C378.009 77.8206 378.009 77.8217 378.009 77.8229C378.009 77.8241 378.009 77.8252 378.009 77.8264C378.009 77.8276 378.009 77.8287 378.009 77.8299C378.009 77.8311 378.009 77.8322 378.009 77.8334C378.009 77.8346 378.009 77.8358 378.009 77.8369C378.009 77.8381 378.009 77.8393 378.009 77.8404C378.009 77.8416 378.009 77.8428 378.009 77.8439C378.009 77.8451 378.009 77.8463 378.009 77.8474C378.009 77.8486 378.009 77.8498 378.009 77.8509C378.009 77.8521 378.009 77.8533 378.009 77.8545C378.009 77.8556 378.009 77.8568 378.009 77.858C378.009 77.8591 378.009 77.8603 378.009 77.8615C378.009 77.8626 378.009 77.8638 378.009 77.865C378.009 77.8661 378.009 77.8673 378.009 77.8685C378.009 77.8696 378.009 77.8708 378.009 77.872C378.009 77.8731 378.009 77.8743 378.009 77.8755C378.009 77.8767 378.009 77.8778 378.009 77.879C378.009 77.8802 378.009 77.8813 378.009 77.8825C378.009 77.8837 378.009 77.8848 378.009 77.886C378.009 77.8872 378.009 77.8883 378.009 77.8895C378.009 77.8907 378.009 77.8918 378.009 77.893C378.009 77.8942 378.009 77.8954 378.009 77.8965C378.009 77.8977 378.009 77.8989 378.009 77.9C378.009 77.9012 378.009 77.9024 378.009 77.9035C378.009 77.9047 378.009 77.9059 378.009 77.907C378.009 77.9082 378.009 77.9094 378.009 77.9105C378.009 77.9117 378.009 77.9129 378.009 77.9141C378.009 77.9152 378.009 77.9164 378.009 77.9176C378.009 77.9187 378.009 77.9199 378.009 77.9211C378.009 77.9222 378.009 77.9234 378.009 77.9246C378.009 77.9257 378.009 77.9269 378.009 77.9281C378.009 77.9292 378.009 77.9304 378.009 77.9316C378.009 77.9327 378.009 77.9339 378.009 77.9351C378.009 77.9363 378.009 77.9374 378.009 77.9386C378.009 77.9398 378.009 77.9409 378.009 77.9421C378.009 77.9433 378.009 77.9444 378.009 77.9456C378.009 77.9468 378.009 77.9479 378.009 77.9491C378.009 77.9503 378.009 77.9514 378.009 77.9526C378.009 77.9538 378.009 77.955 378.009 77.9561C378.009 77.9573 378.009 77.9585 378.009 77.9596C378.009 77.9608 378.009 77.962 378.009 77.9631C378.009 77.9643 378.009 77.9655 378.009 77.9666C378.009 77.9678 378.009 77.969 378.009 77.9701C378.009 77.9713 378.009 77.9725 378.009 77.9737C378.009 77.9748 378.009 77.976 378.009 77.9772C378.009 77.9783 378.009 77.9795 378.009 77.9807C378.009 77.9818 378.009 77.983 378.009 77.9842C378.009 77.9853 378.009 77.9865 378.009 77.9877C378.009 77.9888 378.009 77.99 378.009 77.9912C378.009 77.9923 378.009 77.9935 378.009 77.9947C378.009 77.9959 378.009 77.997 378.009 77.9982C378.009 77.9994 378.009 78.0005 378.009 78.0017C378.009 78.0029 378.009 78.004 378.009 78.0052C378.009 78.0064 378.009 78.0075 378.009 78.0087C378.009 78.0099 378.009 78.011 378.009 78.0122C378.009 78.0134 378.009 78.0146 378.009 78.0157C378.009 78.0169 378.009 78.0181 378.009 78.0192C378.009 78.0204 378.009 78.0216 378.009 78.0227C378.009 78.0239 378.009 78.0251 378.009 78.0262C378.009 78.0274 378.009 78.0286 378.009 78.0297C378.009 78.0309 378.009 78.0321 378.009 78.0333C378.009 78.0344 378.009 78.0356 378.009 78.0368C378.009 78.0379 378.009 78.0391 378.009 78.0403C378.009 78.0414 378.009 78.0426 378.009 78.0438C378.009 78.0449 378.009 78.0461 378.009 78.0473C378.009 78.0484 378.009 78.0496 378.009 78.0508C378.009 78.052 378.009 78.0531 378.009 78.0543C378.009 78.0555 378.009 78.0566 378.009 78.0578C378.009 78.059 378.009 78.0601 378.009 78.0613C378.009 78.0625 378.009 78.0636 378.009 78.0648C378.009 78.066 378.009 78.0671 378.009 78.0683C378.009 78.0695 378.009 78.0706 378.009 78.0718C378.009 78.073 378.009 78.0742 378.009 78.0753C378.009 78.0765 378.009 78.0777 378.009 78.0788C378.009 78.08 378.009 78.0812 378.009 78.0823C378.009 78.0835 378.009 78.0847 378.009 78.0858C378.009 78.087 378.009 78.0882 378.009 78.0893C378.009 78.0905 378.009 78.0917 378.009 78.0929C378.009 78.094 378.009 78.0952 378.009 78.0964C378.009 78.0975 378.009 78.0987 378.009 78.0999C378.009 78.101 378.009 78.1022 378.009 78.1034C378.009 78.1045 378.009 78.1057 378.009 78.1069C378.009 78.108 378.009 78.1092 378.009 78.1104C378.009 78.1116 378.009 78.1127 378.009 78.1139C378.009 78.1151 378.009 78.1162 378.009 78.1174C378.009 78.1186 378.009 78.1197 378.009 78.1209C378.009 78.1221 378.009 78.1232 378.009 78.1244C378.009 78.1256 378.009 78.1267 378.009 78.1279C378.009 78.1291 378.009 78.1302 378.009 78.1314C378.009 78.1326 378.009 78.1338 378.009 78.1349C378.009 78.1361 378.009 78.1373 378.009 78.1384C378.009 78.1396 378.009 78.1408 378.009 78.1419C378.009 78.1431 378.009 78.1443 378.009 78.1454C378.009 78.1466 378.009 78.1478 378.009 78.1489C378.009 78.1501 378.009 78.1513 378.009 78.1525C378.009 78.1536 378.009 78.1548 378.009 78.156C378.009 78.1571 378.009 78.1583 378.009 78.1595C378.009 78.1606 378.009 78.1618 378.009 78.163C378.009 78.1641 378.009 78.1653 378.009 78.1665C378.009 78.1676 378.009 78.1688 378.009 78.17C378.009 78.1712 378.009 78.1723 378.009 78.1735C378.009 78.1747 378.009 78.1758 378.009 78.177C378.009 78.1782 378.009 78.1793 378.009 78.1805C378.009 78.1817 378.009 78.1828 378.009 78.184C378.009 78.1852 378.009 78.1863 378.009 78.1875C378.009 78.1887 378.009 78.1899 378.009 78.191C378.009 78.1922 378.009 78.1934 378.009 78.1945C378.009 78.1957 378.009 78.1969 378.009 78.198C378.009 78.1992 378.009 78.2004 378.009 78.2015C378.009 78.2027 378.009 78.2039 378.009 78.205C378.009 78.2062 378.009 78.2074 378.009 78.2085C378.009 78.2097 378.009 78.2109 378.009 78.2121C378.009 78.2132 378.009 78.2144 378.009 78.2156C378.009 78.2167 378.009 78.2179 378.009 78.2191C378.009 78.2202 378.009 78.2214 378.009 78.2226C378.009 78.2237 378.009 78.2249 378.009 78.2261C378.009 78.2272 378.009 78.2284 378.009 78.2296C378.009 78.2308 378.009 78.2319 378.009 78.2331C378.009 78.2343 378.009 78.2354 378.009 78.2366C378.009 78.2378 378.009 78.2389 378.009 78.2401C378.009 78.2413 378.009 78.2424 378.009 78.2436C378.009 78.2448 378.009 78.2459 378.009 78.2471C378.009 78.2483 378.009 78.2495 378.009 78.2506C378.009 78.2518 378.009 78.253 378.009 78.2541C378.009 78.2553 378.009 78.2565 378.009 78.2576C378.009 78.2588 378.009 78.26 378.009 78.2611C378.009 78.2623 378.009 78.2635 378.009 78.2646C378.009 78.2658 378.009 78.267 378.009 78.2681C378.009 78.2693 378.009 78.2705 378.009 78.2717C378.009 78.2728 378.009 78.274 378.009 78.2752C378.009 78.2763 378.009 78.2775 378.009 78.2787C378.009 78.2798 378.009 78.281 378.009 78.2822C378.009 78.2833 378.009 78.2845 378.009 78.2857C378.009 78.2868 378.009 78.288 378.009 78.2892H380.009C380.009 78.288 380.009 78.2868 380.009 78.2857C380.009 78.2845 380.009 78.2833 380.009 78.2822C380.009 78.281 380.009 78.2798 380.009 78.2787C380.009 78.2775 380.009 78.2763 380.009 78.2752C380.009 78.274 380.009 78.2728 380.009 78.2717C380.009 78.2705 380.009 78.2693 380.009 78.2681C380.009 78.267 380.009 78.2658 380.009 78.2646C380.009 78.2635 380.009 78.2623 380.009 78.2611C380.009 78.26 380.009 78.2588 380.009 78.2576C380.009 78.2565 380.009 78.2553 380.009 78.2541C380.009 78.253 380.009 78.2518 380.009 78.2506C380.009 78.2495 380.009 78.2483 380.009 78.2471C380.009 78.2459 380.009 78.2448 380.009 78.2436C380.009 78.2424 380.009 78.2413 380.009 78.2401C380.009 78.2389 380.009 78.2378 380.009 78.2366C380.009 78.2354 380.009 78.2343 380.009 78.2331C380.009 78.2319 380.009 78.2308 380.009 78.2296C380.009 78.2284 380.009 78.2272 380.009 78.2261C380.009 78.2249 380.009 78.2237 380.009 78.2226C380.009 78.2214 380.009 78.2202 380.009 78.2191C380.009 78.2179 380.009 78.2167 380.009 78.2156C380.009 78.2144 380.009 78.2132 380.009 78.2121C380.009 78.2109 380.009 78.2097 380.009 78.2085C380.009 78.2074 380.009 78.2062 380.009 78.205C380.009 78.2039 380.009 78.2027 380.009 78.2015C380.009 78.2004 380.009 78.1992 380.009 78.198C380.009 78.1969 380.009 78.1957 380.009 78.1945C380.009 78.1934 380.009 78.1922 380.009 78.191C380.009 78.1899 380.009 78.1887 380.009 78.1875C380.009 78.1863 380.009 78.1852 380.009 78.184C380.009 78.1828 380.009 78.1817 380.009 78.1805C380.009 78.1793 380.009 78.1782 380.009 78.177C380.009 78.1758 380.009 78.1747 380.009 78.1735C380.009 78.1723 380.009 78.1712 380.009 78.17C380.009 78.1688 380.009 78.1676 380.009 78.1665C380.009 78.1653 380.009 78.1641 380.009 78.163C380.009 78.1618 380.009 78.1606 380.009 78.1595C380.009 78.1583 380.009 78.1571 380.009 78.156C380.009 78.1548 380.009 78.1536 380.009 78.1525C380.009 78.1513 380.009 78.1501 380.009 78.1489C380.009 78.1478 380.009 78.1466 380.009 78.1454C380.009 78.1443 380.009 78.1431 380.009 78.1419C380.009 78.1408 380.009 78.1396 380.009 78.1384C380.009 78.1373 380.009 78.1361 380.009 78.1349C380.009 78.1338 380.009 78.1326 380.009 78.1314C380.009 78.1302 380.009 78.1291 380.009 78.1279C380.009 78.1267 380.009 78.1256 380.009 78.1244C380.009 78.1232 380.009 78.1221 380.009 78.1209C380.009 78.1197 380.009 78.1186 380.009 78.1174C380.009 78.1162 380.009 78.1151 380.009 78.1139C380.009 78.1127 380.009 78.1116 380.009 78.1104C380.009 78.1092 380.009 78.108 380.009 78.1069C380.009 78.1057 380.009 78.1045 380.009 78.1034C380.009 78.1022 380.009 78.101 380.009 78.0999C380.009 78.0987 380.009 78.0975 380.009 78.0964C380.009 78.0952 380.009 78.094 380.009 78.0929C380.009 78.0917 380.009 78.0905 380.009 78.0893C380.009 78.0882 380.009 78.087 380.009 78.0858C380.009 78.0847 380.009 78.0835 380.009 78.0823C380.009 78.0812 380.009 78.08 380.009 78.0788C380.009 78.0777 380.009 78.0765 380.009 78.0753C380.009 78.0742 380.009 78.073 380.009 78.0718C380.009 78.0706 380.009 78.0695 380.009 78.0683C380.009 78.0671 380.009 78.066 380.009 78.0648C380.009 78.0636 380.009 78.0625 380.009 78.0613C380.009 78.0601 380.009 78.059 380.009 78.0578C380.009 78.0566 380.009 78.0555 380.009 78.0543C380.009 78.0531 380.009 78.052 380.009 78.0508C380.009 78.0496 380.009 78.0484 380.009 78.0473C380.009 78.0461 380.009 78.0449 380.009 78.0438C380.009 78.0426 380.009 78.0414 380.009 78.0403C380.009 78.0391 380.009 78.0379 380.009 78.0368C380.009 78.0356 380.009 78.0344 380.009 78.0333C380.009 78.0321 380.009 78.0309 380.009 78.0297C380.009 78.0286 380.009 78.0274 380.009 78.0262C380.009 78.0251 380.009 78.0239 380.009 78.0227C380.009 78.0216 380.009 78.0204 380.009 78.0192C380.009 78.0181 380.009 78.0169 380.009 78.0157C380.009 78.0146 380.009 78.0134 380.009 78.0122C380.009 78.011 380.009 78.0099 380.009 78.0087C380.009 78.0075 380.009 78.0064 380.009 78.0052C380.009 78.004 380.009 78.0029 380.009 78.0017C380.009 78.0005 380.009 77.9994 380.009 77.9982C380.009 77.997 380.009 77.9959 380.009 77.9947C380.009 77.9935 380.009 77.9923 380.009 77.9912C380.009 77.99 380.009 77.9888 380.009 77.9877C380.009 77.9865 380.009 77.9853 380.009 77.9842C380.009 77.983 380.009 77.9818 380.009 77.9807C380.009 77.9795 380.009 77.9783 380.009 77.9772C380.009 77.976 380.009 77.9748 380.009 77.9737C380.009 77.9725 380.009 77.9713 380.009 77.9701C380.009 77.969 380.009 77.9678 380.009 77.9666C380.009 77.9655 380.009 77.9643 380.009 77.9631C380.009 77.962 380.009 77.9608 380.009 77.9596C380.009 77.9585 380.009 77.9573 380.009 77.9561C380.009 77.955 380.009 77.9538 380.009 77.9526C380.009 77.9514 380.009 77.9503 380.009 77.9491C380.009 77.9479 380.009 77.9468 380.009 77.9456C380.009 77.9444 380.009 77.9433 380.009 77.9421C380.009 77.9409 380.009 77.9398 380.009 77.9386C380.009 77.9374 380.009 77.9363 380.009 77.9351C380.009 77.9339 380.009 77.9327 380.009 77.9316C380.009 77.9304 380.009 77.9292 380.009 77.9281C380.009 77.9269 380.009 77.9257 380.009 77.9246C380.009 77.9234 380.009 77.9222 380.009 77.9211C380.009 77.9199 380.009 77.9187 380.009 77.9176C380.009 77.9164 380.009 77.9152 380.009 77.9141C380.009 77.9129 380.009 77.9117 380.009 77.9105C380.009 77.9094 380.009 77.9082 380.009 77.907C380.009 77.9059 380.009 77.9047 380.009 77.9035C380.009 77.9024 380.009 77.9012 380.009 77.9C380.009 77.8989 380.009 77.8977 380.009 77.8965C380.009 77.8954 380.009 77.8942 380.009 77.893C380.009 77.8918 380.009 77.8907 380.009 77.8895C380.009 77.8883 380.009 77.8872 380.009 77.886C380.009 77.8848 380.009 77.8837 380.009 77.8825C380.009 77.8813 380.009 77.8802 380.009 77.879C380.009 77.8778 380.009 77.8767 380.009 77.8755C380.009 77.8743 380.009 77.8731 380.009 77.872C380.009 77.8708 380.009 77.8696 380.009 77.8685C380.009 77.8673 380.009 77.8661 380.009 77.865C380.009 77.8638 380.009 77.8626 380.009 77.8615C380.009 77.8603 380.009 77.8591 380.009 77.858C380.009 77.8568 380.009 77.8556 380.009 77.8545C380.009 77.8533 380.009 77.8521 380.009 77.8509C380.009 77.8498 380.009 77.8486 380.009 77.8474C380.009 77.8463 380.009 77.8451 380.009 77.8439C380.009 77.8428 380.009 77.8416 380.009 77.8404C380.009 77.8393 380.009 77.8381 380.009 77.8369C380.009 77.8358 380.009 77.8346 380.009 77.8334C380.009 77.8322 380.009 77.8311 380.009 77.8299C380.009 77.8287 380.009 77.8276 380.009 77.8264C380.009 77.8252 380.009 77.8241 380.009 77.8229C380.009 77.8217 380.009 77.8206 380.009 77.8194C380.009 77.8182 380.009 77.8171 380.009 77.8159C380.009 77.8147 380.009 77.8135 380.009 77.8124C380.009 77.8112 380.009 77.81 380.009 77.8089C380.009 77.8077 380.009 77.8065 380.009 77.8054C380.009 77.8042 380.009 77.803 380.009 77.8019C380.009 77.8007 380.009 77.7995 380.009 77.7984C380.009 77.7972 380.009 77.796 380.009 77.7948C380.009 77.7937 380.009 77.7925 380.009 77.7913C380.009 77.7902 380.009 77.789 380.009 77.7878C380.009 77.7867 380.009 77.7855 380.009 77.7843C380.009 77.7832 380.009 77.782 380.009 77.7808C380.009 77.7797 380.009 77.7785 380.009 77.7773C380.009 77.7762 380.009 77.775 380.009 77.7738C380.009 77.7726 380.009 77.7715 380.009 77.7703C380.009 77.7691 380.009 77.768 380.009 77.7668C380.009 77.7656 380.009 77.7645 380.009 77.7633C380.009 77.7621 380.009 77.761 380.009 77.7598C380.009 77.7586 380.009 77.7575 380.009 77.7563C380.009 77.7551 380.009 77.7539 380.009 77.7528C380.009 77.7516 380.009 77.7504 380.009 77.7493C380.009 77.7481 380.009 77.7469 380.009 77.7458C380.009 77.7446 380.009 77.7434 380.009 77.7423C380.009 77.7411 380.009 77.7399 380.009 77.7388C380.009 77.7376 380.009 77.7364 380.009 77.7352C380.009 77.7341 380.009 77.7329 380.009 77.7317C380.009 77.7306 380.009 77.7294 380.009 77.7282C380.009 77.7271 380.009 77.7259 380.009 77.7247C380.009 77.7236 380.009 77.7224 380.009 77.7212C380.009 77.7201 380.009 77.7189 380.009 77.7177C380.009 77.7166 380.009 77.7154 380.009 77.7142C380.009 77.713 380.009 77.7119 380.009 77.7107C380.009 77.7095 380.009 77.7084 380.009 77.7072C380.009 77.706 380.009 77.7049 380.009 77.7037C380.009 77.7025 380.009 77.7014 380.009 77.7002C380.009 77.699 380.009 77.6979 380.009 77.6967C380.009 77.6955 380.009 77.6943 380.009 77.6932C380.009 77.692 380.009 77.6908 380.009 77.6897C380.009 77.6885 380.009 77.6873 380.009 77.6862C380.009 77.685 380.009 77.6838 380.009 77.6827C380.009 77.6815 380.009 77.6803 380.009 77.6792C380.009 77.678 380.009 77.6768 380.009 77.6756C380.009 77.6745 380.009 77.6733 380.009 77.6721C380.009 77.671 380.009 77.6698 380.009 77.6686C380.009 77.6675 380.009 77.6663 380.009 77.6651C380.009 77.664 380.009 77.6628 380.009 77.6616C380.009 77.6605 380.009 77.6593 380.009 77.6581C380.009 77.6569 380.009 77.6558 380.009 77.6546C380.009 77.6534 380.009 77.6523 380.009 77.6511C380.009 77.6499 380.009 77.6488 380.009 77.6476C380.009 77.6464 380.009 77.6453 380.009 77.6441C380.009 77.6429 380.009 77.6418 380.009 77.6406C380.009 77.6394 380.009 77.6383 380.009 77.6371C380.009 77.6359 380.009 77.6347 380.009 77.6336C380.009 77.6324 380.009 77.6312 380.009 77.6301C380.009 77.6289 380.009 77.6277 380.009 77.6266C380.009 77.6254 380.009 77.6242 380.009 77.6231C380.009 77.6219 380.009 77.6207 380.009 77.6196C380.009 77.6184 380.009 77.6172 380.009 77.616C380.009 77.6149 380.009 77.6137 380.009 77.6125C380.009 77.6114 380.009 77.6102 380.009 77.609C380.009 77.6079 380.009 77.6067 380.009 77.6055C380.009 77.6044 380.009 77.6032 380.009 77.602C380.009 77.6009 380.009 77.5997 380.009 77.5985C380.009 77.5973 380.009 77.5962 380.009 77.595C380.009 77.5938 380.009 77.5927 380.009 77.5915C380.009 77.5903 380.009 77.5892 380.009 77.588C380.009 77.5868 380.009 77.5857 380.009 77.5845C380.009 77.5833 380.009 77.5822 380.009 77.581C380.009 77.5798 380.009 77.5787 380.009 77.5775C380.009 77.5763 380.009 77.5751 380.009 77.574C380.009 77.5728 380.009 77.5716 380.009 77.5705C380.009 77.5693 380.009 77.5681 380.009 77.567C380.009 77.5658 380.009 77.5646 380.009 77.5635C380.009 77.5623 380.009 77.5611 380.009 77.56C380.009 77.5588 380.009 77.5576 380.009 77.5564C380.009 77.5553 380.009 77.5541 380.009 77.5529C380.009 77.5518 380.009 77.5506 380.009 77.5494C380.009 77.5483 380.009 77.5471 380.009 77.5459C380.009 77.5448 380.009 77.5436 380.009 77.5424C380.009 77.5413 380.009 77.5401 380.009 77.5389C380.009 77.5377 380.009 77.5366 380.009 77.5354C380.009 77.5342 380.009 77.5331 380.009 77.5319C380.009 77.5307 380.009 77.5296 380.009 77.5284C380.009 77.5272 380.009 77.5261 380.009 77.5249C380.009 77.5237 380.009 77.5226 380.009 77.5214C380.009 77.5202 380.009 77.519 380.009 77.5179C380.009 77.5167 380.009 77.5155 380.009 77.5144C380.009 77.5132 380.009 77.512 380.009 77.5109C380.009 77.5097 380.009 77.5085 380.009 77.5074C380.009 77.5062 380.009 77.505 380.009 77.5039C380.009 77.5027 380.009 77.5015 380.009 77.5004C380.009 77.4992 380.009 77.498 380.009 77.4968C380.009 77.4957 380.009 77.4945 380.009 77.4933C380.009 77.4922 380.009 77.491 380.009 77.4898C380.009 77.4887 380.009 77.4875 380.009 77.4863C380.009 77.4852 380.009 77.484 380.009 77.4828C380.009 77.4817 380.009 77.4805 380.009 77.4793C380.009 77.4781 380.009 77.477 380.009 77.4758C380.009 77.4746 380.009 77.4735 380.009 77.4723C380.009 77.4711 380.009 77.47 380.009 77.4688C380.009 77.4676 380.009 77.4665 380.009 77.4653C380.009 77.4641 380.009 77.463 380.009 77.4618C380.009 77.4606 380.009 77.4594 380.009 77.4583C380.009 77.4571 380.009 77.4559 380.009 77.4548C380.009 77.4536 380.009 77.4524 380.009 77.4513C380.009 77.4501 380.009 77.4489 380.009 77.4478C380.009 77.4466 380.009 77.4454 380.009 77.4443C380.009 77.4431 380.009 77.4419 380.009 77.4408C380.009 77.4396 380.009 77.4384 380.009 77.4372C380.009 77.4361 380.009 77.4349 380.009 77.4337C380.009 77.4326 380.009 77.4314 380.009 77.4302C380.009 77.4291 380.009 77.4279 380.009 77.4267C380.009 77.4256 380.009 77.4244 380.009 77.4232C380.009 77.4221 380.009 77.4209 380.009 77.4197C380.009 77.4185 380.009 77.4174 380.009 77.4162C380.009 77.415 380.009 77.4139 380.009 77.4127C380.009 77.4115 380.009 77.4104 380.009 77.4092C380.009 77.408 380.009 77.4069 380.009 77.4057C380.009 77.4045 380.009 77.4034 380.009 77.4022C380.009 77.401 380.009 77.3998 380.009 77.3987C380.009 77.3975 380.009 77.3963 380.009 77.3952C380.009 77.394 380.009 77.3928 380.009 77.3917C380.009 77.3905 380.009 77.3893 380.009 77.3882C380.009 77.387 380.009 77.3858 380.009 77.3847C380.009 77.3835 380.009 77.3823 380.009 77.3812C380.009 77.38 380.009 77.3788 380.009 77.3776C380.009 77.3765 380.009 77.3753 380.009 77.3741C380.009 77.373 380.009 77.3718 380.009 77.3706C380.009 77.3695 380.009 77.3683 380.009 77.3671C380.009 77.366 380.009 77.3648 380.009 77.3636C380.009 77.3625 380.009 77.3613 380.009 77.3601C380.009 77.3589 380.009 77.3578 380.009 77.3566C380.009 77.3554 380.009 77.3543 380.009 77.3531C380.009 77.3519 380.009 77.3508 380.009 77.3496C380.009 77.3484 380.009 77.3473 380.009 77.3461C380.009 77.3449 380.009 77.3438 380.009 77.3426C380.009 77.3414 380.009 77.3402 380.009 77.3391C380.009 77.3379 380.009 77.3367 380.009 77.3356C380.009 77.3344 380.009 77.3332 380.009 77.3321C380.009 77.3309 380.009 77.3297 380.009 77.3286C380.009 77.3274 380.009 77.3262 380.009 77.3251C380.009 77.3239 380.009 77.3227 380.009 77.3215C380.009 77.3204 380.009 77.3192 380.009 77.318C380.009 77.3169 380.009 77.3157 380.009 77.3145C380.009 77.3134 380.009 77.3122 380.009 77.311C380.009 77.3099 380.009 77.3087 380.009 77.3075C380.009 77.3064 380.009 77.3052 380.009 77.304C380.009 77.3029 380.009 77.3017 380.009 77.3005C380.009 77.2993 380.009 77.2982 380.009 77.297C380.009 77.2958 380.009 77.2947 380.009 77.2935C380.009 77.2923 380.009 77.2912 380.009 77.29C380.009 77.2888 380.009 77.2877 380.009 77.2865C380.009 77.2853 380.009 77.2842 380.009 77.283C380.009 77.2818 380.009 77.2806 380.009 77.2795C380.009 77.2783 380.009 77.2771 380.009 77.276C380.009 77.2748 380.009 77.2736 380.009 77.2725C380.009 77.2713 380.009 77.2701 380.009 77.269C380.009 77.2678 380.009 77.2666 380.009 77.2655C380.009 77.2643 380.009 77.2631 380.009 77.2619C380.009 77.2608 380.009 77.2596 380.009 77.2584C380.009 77.2573 380.009 77.2561 380.009 77.2549C380.009 77.2538 380.009 77.2526 380.009 77.2514C380.009 77.2503 380.009 77.2491 380.009 77.2479C380.009 77.2468 380.009 77.2456 380.009 77.2444C380.009 77.2433 380.009 77.2421 380.009 77.2409C380.009 77.2397 380.009 77.2386 380.009 77.2374C380.009 77.2362 380.009 77.2351 380.009 77.2339C380.009 77.2327 380.009 77.2316 380.009 77.2304C380.009 77.2292 380.009 77.2281 380.009 77.2269C380.009 77.2257 380.009 77.2246 380.009 77.2234C380.009 77.2222 380.009 77.221 380.009 77.2199C380.009 77.2187 380.009 77.2175 380.009 77.2164C380.009 77.2152 380.009 77.214 380.009 77.2129C380.009 77.2117 380.009 77.2105 380.009 77.2094C380.009 77.2082 380.009 77.207 380.009 77.2059C380.009 77.2047 380.009 77.2035 380.009 77.2023C380.009 77.2012 380.009 77.2 380.009 77.1988C380.009 77.1977 380.009 77.1965 380.009 77.1953C380.009 77.1942 380.009 77.193 380.009 77.1918C380.009 77.1907 380.009 77.1895 380.009 77.1883C380.009 77.1872 380.009 77.186 380.009 77.1848C380.009 77.1836 380.009 77.1825 380.009 77.1813C380.009 77.1801 380.009 77.179 380.009 77.1778C380.009 77.1766 380.009 77.1755 380.009 77.1743C380.009 77.1731 380.009 77.172 380.009 77.1708C380.009 77.1696 380.009 77.1685 380.009 77.1673C380.009 77.1661 380.009 77.165 380.009 77.1638C380.009 77.1626 380.009 77.1614 380.009 77.1603C380.009 77.1591 380.009 77.1579 380.009 77.1568C380.009 77.1556 380.009 77.1544 380.009 77.1533C380.009 77.1521 380.009 77.1509 380.009 77.1498C380.009 77.1486 380.009 77.1474 380.009 77.1463C380.009 77.1451 380.009 77.1439 380.009 77.1427C380.009 77.1416 380.009 77.1404 380.009 77.1392C380.009 77.1381 380.009 77.1369 380.009 77.1357C380.009 77.1346 380.009 77.1334 380.009 77.1322C380.009 77.1311 380.009 77.1299 380.009 77.1287C380.009 77.1276 380.009 77.1264 380.009 77.1252C380.009 77.124 380.009 77.1229 380.009 77.1217C380.009 77.1205 380.009 77.1194 380.009 77.1182C380.009 77.117 380.009 77.1159 380.009 77.1147C380.009 77.1135 380.009 77.1124 380.009 77.1112C380.009 77.11 380.009 77.1089 380.009 77.1077C380.009 77.1065 380.009 77.1054 380.009 77.1042C380.009 77.103 380.009 77.1018 380.009 77.1007C380.009 77.0995 380.009 77.0983 380.009 77.0972C380.009 77.096 380.009 77.0948 380.009 77.0937C380.009 77.0925 380.009 77.0913 380.009 77.0902C380.009 77.089 380.009 77.0878 380.009 77.0867C380.009 77.0855 380.009 77.0843 380.009 77.0831C380.009 77.082 380.009 77.0808 380.009 77.0796C380.009 77.0785 380.009 77.0773 380.009 77.0761C380.009 77.075 380.009 77.0738 380.009 77.0726C380.009 77.0715 380.009 77.0703 380.009 77.0691C380.009 77.068 380.009 77.0668 380.009 77.0656C380.009 77.0644 380.009 77.0633 380.009 77.0621C380.009 77.0609 380.009 77.0598 380.009 77.0586C380.009 77.0574 380.009 77.0563 380.009 77.0551C380.009 77.0539 380.009 77.0528 380.009 77.0516C380.009 77.0504 380.009 77.0493 380.009 77.0481C380.009 77.0469 380.009 77.0458 380.009 77.0446C380.009 77.0434 380.009 77.0422 380.009 77.0411C380.009 77.0399 380.009 77.0387 380.009 77.0376C380.009 77.0364 380.009 77.0352 380.009 77.0341C380.009 77.0329 380.009 77.0317 380.009 77.0306C380.009 77.0294 380.009 77.0282 380.009 77.0271C380.009 77.0259 380.009 77.0247 380.009 77.0235C380.009 77.0224 380.009 77.0212 380.009 77.02C380.009 77.0189 380.009 77.0177 380.009 77.0165C380.009 77.0154 380.009 77.0142 380.009 77.013C380.009 77.0119 380.009 77.0107 380.009 77.0095C380.009 77.0084 380.009 77.0072 380.009 77.006C380.009 77.0048 380.009 77.0037 380.009 77.0025C380.009 77.0013 380.009 77.0002 380.009 76.999C380.009 76.9978 380.009 76.9967 380.009 76.9955C380.009 76.9943 380.009 76.9932 380.009 76.992C380.009 76.9908 380.009 76.9897 380.009 76.9885C380.009 76.9873 380.009 76.9861 380.009 76.985C380.009 76.9838 380.009 76.9826 380.009 76.9815C380.009 76.9803 380.009 76.9791 380.009 76.978C380.009 76.9768 380.009 76.9756 380.009 76.9745C380.009 76.9733 380.009 76.9721 380.009 76.971C380.009 76.9698 380.009 76.9686 380.009 76.9675C380.009 76.9663 380.009 76.9651 380.009 76.9639C380.009 76.9628 380.009 76.9616 380.009 76.9604C380.009 76.9593 380.009 76.9581 380.009 76.9569C380.009 76.9558 380.009 76.9546 380.009 76.9534C380.009 76.9523 380.009 76.9511 380.009 76.9499C380.009 76.9488 380.009 76.9476 380.009 76.9464C380.009 76.9452 380.009 76.9441 380.009 76.9429C380.009 76.9417 380.009 76.9406 380.009 76.9394C380.009 76.9382 380.009 76.9371 380.009 76.9359C380.009 76.9347 380.009 76.9336 380.009 76.9324C380.009 76.9312 380.009 76.9301 380.009 76.9289C380.009 76.9277 380.009 76.9265 380.009 76.9254C380.009 76.9242 380.009 76.923 380.009 76.9219C380.009 76.9207 380.009 76.9195 380.009 76.9184C380.009 76.9172 380.009 76.916 380.009 76.9149C380.009 76.9137 380.009 76.9125 380.009 76.9114C380.009 76.9102 380.009 76.909 380.009 76.9079C380.009 76.9067 380.009 76.9055 380.009 76.9043C380.009 76.9032 380.009 76.902 380.009 76.9008C380.009 76.8997 380.009 76.8985 380.009 76.8973C380.009 76.8962 380.009 76.895 380.009 76.8938C380.009 76.8927 380.009 76.8915 380.009 76.8903C380.009 76.8892 380.009 76.888 380.009 76.8868C380.009 76.8856 380.009 76.8845 380.009 76.8833C380.009 76.8821 380.009 76.881 380.009 76.8798C380.009 76.8786 380.009 76.8775 380.009 76.8763C380.009 76.8751 380.009 76.874 380.009 76.8728C380.009 76.8716 380.009 76.8705 380.009 76.8693C380.009 76.8681 380.009 76.8669 380.009 76.8658C380.009 76.8646 380.009 76.8634 380.009 76.8623C380.009 76.8611 380.009 76.8599 380.009 76.8588C380.009 76.8576 380.009 76.8564 380.009 76.8553C380.009 76.8541 380.009 76.8529 380.009 76.8518C380.009 76.8506 380.009 76.8494 380.009 76.8483C380.009 76.8471 380.009 76.8459 380.009 76.8447C380.009 76.8436 380.009 76.8424 380.009 76.8412C380.009 76.8401 380.009 76.8389 380.009 76.8377C380.009 76.8366 380.009 76.8354 380.009 76.8342C380.009 76.8331 380.009 76.8319 380.009 76.8307C380.009 76.8296 380.009 76.8284 380.009 76.8272C380.009 76.826 380.009 76.8249 380.009 76.8237C380.009 76.8225 380.009 76.8214 380.009 76.8202C380.009 76.819 380.009 76.8179 380.009 76.8167C380.009 76.8155 380.009 76.8144 380.009 76.8132C380.009 76.812 380.009 76.8109 380.009 76.8097C380.009 76.8085 380.009 76.8073 380.009 76.8062C380.009 76.805 380.009 76.8038 380.009 76.8027C380.009 76.8015 380.009 76.8003 380.009 76.7992C380.009 76.798 380.009 76.7968 380.009 76.7957C380.009 76.7945 380.009 76.7933 380.009 76.7922C380.009 76.791 380.009 76.7898 380.009 76.7886C380.009 76.7875 380.009 76.7863 380.009 76.7851C380.009 76.784 380.009 76.7828 380.009 76.7816C380.009 76.7805 380.009 76.7793 380.009 76.7781C380.009 76.777 380.009 76.7758 380.009 76.7746C380.009 76.7735 380.009 76.7723 380.009 76.7711C380.009 76.77 380.009 76.7688 380.009 76.7676C380.009 76.7664 380.009 76.7653 380.009 76.7641C380.009 76.7629 380.009 76.7618 380.009 76.7606C380.009 76.7594 380.009 76.7583 380.009 76.7571C380.009 76.7559 380.009 76.7548 380.009 76.7536C380.009 76.7524 380.009 76.7513 380.009 76.7501C380.009 76.7489 380.009 76.7477 380.009 76.7466C380.009 76.7454 380.009 76.7442 380.009 76.7431C380.009 76.7419 380.009 76.7407 380.009 76.7396C380.009 76.7384 380.009 76.7372 380.009 76.7361C380.009 76.7349 380.009 76.7337 380.009 76.7326C380.009 76.7314 380.009 76.7302 380.009 76.729C380.009 76.7279 380.009 76.7267 380.009 76.7255C380.009 76.7244 380.009 76.7232 380.009 76.722C380.009 76.7209 380.009 76.7197 380.009 76.7185C380.009 76.7174 380.009 76.7162 380.009 76.715C380.009 76.7139 380.009 76.7127 380.009 76.7115C380.009 76.7104 380.009 76.7092 380.009 76.708C380.009 76.7068 380.009 76.7057 380.009 76.7045C380.009 76.7033 380.009 76.7022 380.009 76.701C380.009 76.6998 380.009 76.6987 380.009 76.6975C380.009 76.6963 380.009 76.6952 380.009 76.694C380.009 76.6928 380.009 76.6917 380.009 76.6905C380.009 76.6893 380.009 76.6881 380.009 76.687C380.009 76.6858 380.009 76.6846 380.009 76.6835C380.009 76.6823 380.009 76.6811 380.009 76.68C380.009 76.6788 380.009 76.6776 380.009 76.6765C380.009 76.6753 380.009 76.6741 380.009 76.673C380.009 76.6718 380.009 76.6706 380.009 76.6694C380.009 76.6683 380.009 76.6671 380.009 76.6659C380.009 76.6648 380.009 76.6636 380.009 76.6624C380.009 76.6613 380.009 76.6601 380.009 76.6589C380.009 76.6578 380.009 76.6566 380.009 76.6554C380.009 76.6543 380.009 76.6531 380.009 76.6519C380.009 76.6508 380.009 76.6496 380.009 76.6484C380.009 76.6472 380.009 76.6461 380.009 76.6449C380.009 76.6437 380.009 76.6426 380.009 76.6414C380.009 76.6402 380.009 76.6391 380.009 76.6379C380.009 76.6367 380.009 76.6356 380.009 76.6344C380.009 76.6332 380.009 76.6321 380.009 76.6309C380.009 76.6297 380.009 76.6285 380.009 76.6274C380.009 76.6262 380.009 76.625 380.009 76.6239C380.009 76.6227 380.009 76.6215 380.009 76.6204C380.009 76.6192 380.009 76.618 380.009 76.6169C380.009 76.6157 380.009 76.6145 380.009 76.6134C380.009 76.6122 380.009 76.611 380.009 76.6098C380.009 76.6087 380.009 76.6075 380.009 76.6063C380.009 76.6052 380.009 76.604 380.009 76.6028C380.009 76.6017 380.009 76.6005 380.009 76.5993C380.009 76.5982 380.009 76.597 380.009 76.5958C380.009 76.5947 380.009 76.5935 380.009 76.5923C380.009 76.5911 380.009 76.59 380.009 76.5888C380.009 76.5876 380.009 76.5865 380.009 76.5853C380.009 76.5841 380.009 76.583 380.009 76.5818C380.009 76.5806 380.009 76.5795 380.009 76.5783C380.009 76.5771 380.009 76.576 380.009 76.5748C380.009 76.5736 380.009 76.5725 380.009 76.5713C380.009 76.5701 380.009 76.5689 380.009 76.5678C380.009 76.5666 380.009 76.5654 380.009 76.5643C380.009 76.5631 380.009 76.5619 380.009 76.5608C380.009 76.5596 380.009 76.5584 380.009 76.5573C380.009 76.5561 380.009 76.5549 380.009 76.5538C380.009 76.5526 380.009 76.5514 380.009 76.5502C380.009 76.5491 380.009 76.5479 380.009 76.5467C380.009 76.5456 380.009 76.5444 380.009 76.5432C380.009 76.5421 380.009 76.5409 380.009 76.5397C380.009 76.5386 380.009 76.5374 380.009 76.5362C380.009 76.5351 380.009 76.5339 380.009 76.5327C380.009 76.5315 380.009 76.5304 380.009 76.5292C380.009 76.528 380.009 76.5269 380.009 76.5257C380.009 76.5245 380.009 76.5234 380.009 76.5222C380.009 76.521 380.009 76.5199 380.009 76.5187C380.009 76.5175 380.009 76.5164 380.009 76.5152C380.009 76.514 380.009 76.5129 380.009 76.5117C380.009 76.5105 380.009 76.5093 380.009 76.5082C380.009 76.507 380.009 76.5058 380.009 76.5047C380.009 76.5035 380.009 76.5023 380.009 76.5012C380.009 76.5 380.009 76.4988 380.009 76.4977C380.009 76.4965 380.009 76.4953 380.009 76.4942H378.009ZM378.009 78.2892C378.009 78.7793 377.972 79.097 377.926 79.2807L379.867 79.7658C379.97 79.3512 380.009 78.8462 380.009 78.2892H378.009ZM378.896 78.5233H328.86V80.5233H378.896V78.5233ZM327.864 79.6122C328.25 83.9338 329.449 87.8195 331.477 91.251L333.199 90.2335C331.337 87.0831 330.218 83.4895 329.856 79.4343L327.864 79.6122ZM331.491 91.274C333.589 94.6156 336.278 97.3063 339.553 99.3336L340.605 97.633C337.597 95.771 335.125 93.301 333.185 90.2105L331.491 91.274ZM339.576 99.3478C342.946 101.307 346.597 102.288 350.513 102.288V100.288C346.948 100.288 343.644 99.3994 340.582 97.6188L339.576 99.3478ZM350.513 102.288C354.506 102.288 358.268 101.268 361.783 99.237L360.782 97.5052C357.566 99.3637 354.148 100.288 350.513 100.288V102.288ZM361.775 99.2417C365.375 97.2068 367.936 94.5093 369.382 91.1361L367.544 90.3483C366.297 93.2577 364.072 95.6462 360.791 97.5005L361.775 99.2417ZM368.201 91.7074L374.82 93.5024L375.344 91.5721L368.725 89.7771L368.201 91.7074ZM374.164 92.1403C373.03 94.7639 371.286 97.1556 368.912 99.314L370.257 100.794C372.82 98.4647 374.741 95.8453 376 92.9342L374.164 92.1403ZM368.912 99.314C366.544 101.467 363.738 103.161 360.481 104.391L361.187 106.262C364.662 104.95 367.689 103.129 370.257 100.794L368.912 99.314ZM360.492 104.387C357.32 105.541 353.884 106.122 350.176 106.122V108.122C354.097 108.122 357.766 107.507 361.176 106.267L360.492 104.387ZM328.636 75.026H371.829V73.026H328.636V75.026ZM372.826 73.956C372.517 69.5497 371.315 65.6472 369.198 62.2753L367.504 63.3388C369.425 66.399 370.542 69.9759 370.831 74.096L372.826 73.956ZM369.206 62.2896C367.174 58.9281 364.468 56.2986 361.097 54.4171L360.122 56.1635C363.184 57.8722 365.638 60.2537 367.495 63.3244L369.206 62.2896ZM361.121 54.431C357.818 52.465 354.162 51.4856 350.176 51.4856V53.4856C353.819 53.4856 357.118 54.376 360.098 56.1496L361.121 54.431ZM350.176 51.4856C346.19 51.4856 342.534 52.465 339.231 54.431L340.254 56.1496C343.234 54.376 346.533 53.4856 350.176 53.4856V51.4856ZM339.246 54.4221C335.949 56.306 333.25 58.9721 331.149 62.3962L332.854 63.4422C334.791 60.2846 337.253 57.8647 340.238 56.1586L339.246 54.4221ZM331.146 62.4018C329.11 65.7685 327.947 69.6272 327.638 73.9547L329.633 74.0972C329.922 70.0479 331.003 66.5021 332.857 63.4366L331.146 62.4018Z" fill="white" mask="url(#path-1-outside-1_18_40)"/>
<path d="M216.954 88.4986C219.163 88.4986 220.954 86.7101 220.954 84.5038C220.954 82.2975 219.163 80.509 216.954 80.509C214.745 80.509 212.954 82.2975 212.954 84.5038C212.954 86.7101 214.745 88.4986 216.954 88.4986Z" fill="white"/>
<path d="M218 88H216V96H218V88Z" fill="white"/>
</svg>
