<svg   viewBox="0 0 128 33" fill="none" xmlns="http://www.w3.org/2000/svg">
<path d="M16.1267 25.9041C16.0453 25.9418 15.7574 26.2052 15.4858 26.4938C14.9589 27.0583 14.8992 27.2089 15.1056 27.4472C15.1653 27.5162 15.2848 27.5727 15.3717 27.5727C15.4532 27.5727 15.589 27.5162 15.6651 27.4472C15.7411 27.3782 15.8171 27.3218 15.8334 27.3218C15.8497 27.3218 15.866 28.0557 15.866 28.9527V30.5899L16.0018 30.7404C16.1702 30.9412 16.3766 30.9412 16.545 30.7404L16.6808 30.5899V28.9527V27.3092L16.8655 27.441C17.1045 27.6103 17.2837 27.6103 17.4304 27.4284C17.6368 27.1775 17.5879 27.0583 17.0447 26.4812C16.4744 25.879 16.3386 25.7975 16.1267 25.9041Z" fill="#0C64D6"/>
<path d="M12.7382 0.0355764C8.62634 0.411942 5.45421 1.98013 2.95561 4.85933C1.5325 6.50907 0.516762 8.37208 0.131109 10.072C-0.0481382 10.8561 -0.0427065 11.9977 0.141972 12.6125L0.272334 13.0453L6.98052 18.9354C10.6687 22.1722 13.7648 24.8632 13.8625 24.9134C14.0038 24.9824 14.4329 25.0012 16.1602 25.0012H18.2785V31.8385H9.58775V25.0012H10.0657C10.4894 25.0012 10.56 25.02 10.6524 25.1329C10.7719 25.2897 11.1412 25.4967 11.2988 25.503C11.8691 25.5093 12.3525 24.9071 12.2276 24.3488C12.1733 24.0979 11.9397 23.8282 11.679 23.7153C11.3368 23.5585 11 23.6275 10.7339 23.9097L10.5274 24.123H9.87564C9.06631 24.123 8.90336 24.1795 8.82731 24.4868C8.78386 24.6436 8.773 25.9797 8.78386 28.5641L8.80015 32.4156L8.93051 32.5348C9.05001 32.6477 9.21297 32.654 13.9331 32.654C18.7837 32.654 18.8054 32.654 18.9521 32.5222L19.0933 32.3968V28.4198C19.0933 24.606 19.0879 24.4429 18.9901 24.3049L18.8869 24.1544L15.1281 24.0916L21.3855 18.603C24.8238 15.5858 27.6863 13.0453 27.7352 12.9575C27.9959 12.5372 28.0774 11.4332 27.9199 10.4546C27.6591 8.86763 26.8878 7.2618 25.4919 5.37997C25.0573 4.79033 24.3186 4.01251 23.6777 3.45423C21.7331 1.76059 18.9684 0.512307 16.3231 0.129668C15.5138 0.0104853 13.5366 -0.0396968 12.7382 0.0355764ZM15.2802 0.851036C17.1107 0.99531 18.6099 1.40931 20.3969 2.26241C21.983 3.02141 23.5745 4.27597 24.6282 5.60579C26.1817 7.55662 26.9965 9.30045 27.1866 11.0568C27.2572 11.6967 27.1811 12.3239 27.0019 12.5497C26.877 12.7128 15.1661 22.9939 15.139 22.9625C15.1118 22.9312 19.0933 13.6412 19.2888 13.2899C19.8483 12.28 20.8532 11.4583 21.9124 11.1446L22.3143 11.0317L22.5533 11.2262C22.7651 11.3956 22.8412 11.4207 23.1399 11.4207C23.5256 11.4207 23.6994 11.314 23.9167 10.9502C24.21 10.4484 23.9221 9.77718 23.3355 9.62664C23.0041 9.54509 22.7 9.65173 22.4447 9.95282C22.2763 10.1473 22.1568 10.2163 21.8852 10.2916C20.7608 10.5926 19.6636 11.3391 19.0064 12.2487C18.8652 12.4494 18.7239 12.6376 18.7022 12.6689C18.6805 12.7066 18.4904 12.5184 18.2677 12.2424C17.7571 11.6026 17.29 11.1948 16.6218 10.8185C15.8397 10.3794 15.2096 10.1975 14.3134 10.1536C12.5372 10.072 11.0326 10.7557 9.86477 12.1797L9.39221 12.7567L9.11519 12.3616C8.19723 11.0631 6.64376 10.2288 4.99794 10.1536C3.60199 10.0908 2.39614 10.5048 1.36411 11.4081C1.15771 11.5837 0.940437 11.7782 0.880688 11.8284C0.772053 11.9162 0.772053 11.9099 0.799212 11.2325C0.842666 10.1849 1.1903 9.08091 1.8747 7.80126C3.42817 4.91579 6.16576 2.59487 9.2184 1.57868C11.0652 0.963946 13.3085 0.694217 15.2802 0.851036ZM5.62259 11.0506C7.08916 11.3705 8.28957 12.3051 8.93051 13.6161C9.01199 13.7855 9.93539 15.9496 10.9728 18.4148C12.0103 20.88 12.874 22.9249 12.8902 22.9563C12.9065 22.9876 12.8794 22.9876 12.8359 22.9563C12.787 22.9249 10.1472 20.6165 6.9588 17.8251L1.16857 12.7442L1.28807 12.5937C1.65199 12.142 2.60255 11.4708 3.20547 11.2325C3.91703 10.9502 4.86215 10.8812 5.62259 11.0506ZM15.3834 11.1635C16.4698 11.5085 17.4312 12.2926 18.0504 13.3401L18.2242 13.6349L16.1167 18.5591C14.9597 21.2689 13.9983 23.4706 13.982 23.4455C13.9657 23.4205 13.026 21.2124 11.9017 18.5402L9.84848 13.6788L9.94082 13.4907C10.0766 13.1833 10.6306 12.4807 10.9783 12.1546C11.5649 11.6151 12.3199 11.2262 13.1564 11.0443C13.7756 10.9126 14.7425 10.9627 15.3834 11.1635Z" fill="#0C64D6"/>
<path d="M36.3976 1.40788L36 1.80549V10.2925C36 17.0657 36.0411 18.9441 36.192 19.6844C36.8775 22.9065 39.4963 25.0454 42.9926 25.2373C47.0098 25.4567 50.0811 23.071 50.7529 19.232C50.9174 18.2722 50.9449 16.5995 50.9174 9.93603L50.8763 1.80549L50.4239 1.40788C49.6972 0.763466 48.6414 0.914286 48.1753 1.73694C48.0382 1.97002 47.9833 4.08149 47.9285 10.6079L47.8599 19.1771L47.5446 19.7667C47.0784 20.6305 46.2695 21.4669 45.5016 21.8508C44.9258 22.1524 44.6653 22.1935 43.4039 22.1935C42.0602 22.1935 41.9094 22.1661 41.2238 21.7822C40.3875 21.316 39.7157 20.5619 39.2632 19.5748C38.9478 18.9029 38.9478 18.8755 38.8793 10.4022C38.8382 5.7268 38.7559 1.79178 38.701 1.66838C38.5091 1.28448 37.9607 1.01026 37.3711 1.01026C36.9186 1.01026 36.713 1.09253 36.3976 1.40788Z" fill="#0C64D6"/>
<path d="M73.0605 1.33981L72.6766 1.66887L72.608 4.7401L72.5395 7.79762L71.7579 7.86618C70.7845 7.94844 70.2909 8.37348 70.1812 9.19613C70.1126 9.67601 70.1675 9.81312 70.524 10.2107C70.8804 10.6083 71.045 10.6769 71.7442 10.7455L72.5395 10.814L72.608 17.7106L72.6766 24.6208L73.0605 24.9499C73.7323 25.5258 74.9663 25.2927 75.3228 24.5249C75.4462 24.2644 75.4873 22.3723 75.4873 17.4638V10.7455H77.4754H79.4634L79.9022 10.3616C80.2724 10.0188 80.3272 9.86796 80.3272 9.30582C80.3272 8.74367 80.2724 8.59285 79.9022 8.25008L79.4634 7.86618H77.4754H75.4873V4.9869C75.4873 1.92938 75.405 1.47692 74.8155 1.14786C74.3219 0.887351 73.4718 0.983327 73.0605 1.33981Z" fill="#0C64D6"/>
<path d="M56.2921 8.09897C55.3597 8.57885 55.4009 8.03041 55.3597 19.8629C55.3323 27.253 55.3597 30.7082 55.4694 31.0647C55.7848 32.1478 56.9913 32.4906 57.8277 31.7365L58.2802 31.3389L58.3213 28.3088L58.3624 25.2787H60.8852C64.3952 25.2787 65.5332 24.977 66.6301 23.7705C67.7681 22.5091 67.9463 21.5356 67.9463 16.5174C67.9463 11.4307 67.7955 10.6355 66.5615 9.30552C66.2599 8.97646 65.6703 8.56513 65.163 8.33205L64.3129 7.93443L60.5425 7.8933C57.1422 7.85217 56.7308 7.87959 56.2921 8.09897ZM63.9702 11.0879C64.2307 11.2525 64.5597 11.5815 64.7243 11.842C64.9848 12.2945 64.9985 12.5413 64.9985 16.5037C64.9985 20.4113 64.9848 20.7267 64.7243 21.234C64.2307 22.2074 63.8605 22.3171 60.9264 22.3857L58.3487 22.4268V16.5723V10.7177L60.9264 10.7726C63.2024 10.8137 63.5451 10.8411 63.9702 11.0879Z" fill="#0C64D6"/>
<path d="M100.194 8.07153C99.3305 8.45544 99.3305 8.38688 99.3716 16.8602L99.4128 24.4834L99.8652 24.881C100.386 25.3472 101.14 25.4158 101.661 25.0593C102.347 24.5794 102.361 24.4012 102.361 17.3126V10.7177L104.801 10.7726C107.557 10.8274 108.092 10.9919 108.599 11.8557C108.86 12.2945 108.873 12.6372 108.942 18.2861C108.997 22.7147 109.052 24.3326 109.189 24.552C109.655 25.3746 110.711 25.5254 111.437 24.881L111.89 24.4834L111.931 19.2185C111.986 11.7872 111.807 10.5395 110.395 9.15469C109.23 8.01669 108.969 7.96185 104.486 7.907C101.332 7.87958 100.564 7.907 100.194 8.07153Z" fill="#0C64D6"/>
<path d="M120.295 8.01606C118.06 8.53707 116.209 10.6348 115.797 13.1028C115.564 14.4602 115.688 20.9728 115.962 21.9189C116.346 23.2488 116.99 24.1537 117.868 24.5925C118.965 25.1546 119.938 25.278 123.599 25.278H127.068L127.534 24.8118C127.863 24.4828 128 24.2223 128 23.9206C128 23.3037 127.671 22.7415 127.218 22.5633C126.999 22.481 125.464 22.3987 123.544 22.3713C120.774 22.3302 120.171 22.2753 119.773 22.0834C118.978 21.6995 118.759 21.1785 118.704 19.492L118.649 18.025L122.845 17.9838L127.04 17.9427L127.397 17.5725C127.712 17.2709 127.781 17.0515 127.863 16.0917C128.151 12.76 127.232 10.2509 125.203 8.87984C123.887 7.98864 121.885 7.63215 120.295 8.01606ZM123.338 11.1558C124.065 11.526 124.531 12.2664 124.778 13.4318C125.052 14.7481 125.038 14.9812 124.682 15.0634C124.504 15.1046 123.105 15.1183 121.556 15.1046L118.745 15.0634L118.704 14.3779C118.622 13.0342 119.28 11.7043 120.281 11.1696C121.007 10.7856 122.598 10.7719 123.338 11.1558Z" fill="#0C64D6"/>
<path d="M83.1517 8.53767C82.9323 8.75704 82.7541 9.07239 82.7541 9.22321C82.7541 9.62083 83.0283 10.1693 83.2888 10.2927C83.4122 10.3475 85.0849 10.4298 87.0044 10.4709C90.3362 10.5395 90.5281 10.5532 90.9943 10.8548C91.7758 11.3347 91.9952 11.938 92.05 13.7067L92.1049 15.2423L89.1708 15.2971C86.5108 15.352 86.1818 15.3794 85.4414 15.681C84.3994 16.0786 83.4259 16.9836 82.9323 17.9982C82.6032 18.6563 82.5484 18.9305 82.5484 19.9999C82.5484 21.1242 82.5895 21.3162 83.0009 22.1525C83.5493 23.2631 84.5091 24.1818 85.6059 24.6205C86.3463 24.9221 86.5657 24.9359 90.062 24.9359H93.7502L94.0655 24.5657C94.5317 24.0309 94.5728 23.2083 94.518 17.2578C94.4631 12.363 94.4357 11.9928 94.1615 11.1564C93.6542 9.5934 92.5573 8.64735 90.8709 8.29087C90.4459 8.20861 88.7731 8.14005 86.8536 8.14005H83.5493L83.1517 8.53767ZM89.3764 17.3812C90.1031 17.6828 90.5693 18.3409 90.5693 19.0539C90.5693 19.5475 90.487 19.7531 90.0894 20.1919C89.6232 20.6992 89.6095 20.754 89.6095 21.7961C89.6095 22.701 89.5684 22.9066 89.3079 23.1809C88.8965 23.6196 88.1973 23.6059 87.7585 23.1534C87.4432 22.8518 87.4158 22.7147 87.4158 21.6727C87.4158 20.7678 87.3746 20.4935 87.2101 20.425C86.9085 20.3153 86.456 19.5064 86.456 19.0676C86.456 17.7239 88.0328 16.819 89.3764 17.3812Z" fill="#0C64D6"/>
</svg>
