<svg xmlns="http://www.w3.org/2000/svg" width="258" height="210" fill="none">
  <path fill="#55ACEE" d="M258 24.82a105.862 105.862 0 0 1-30.402 8.335c10.93-6.55 19.322-16.924 23.274-29.284a106.007 106.007 0 0 1-33.612 12.845C207.604 6.429 193.849 0 178.624 0c-29.233 0-52.934 23.7-52.934 52.93 0 4.15.469 8.189 1.371 12.064-43.991-2.208-82.993-23.28-109.1-55.305-4.556 7.818-7.166 16.911-7.166 26.61 0 18.365 9.345 34.565 23.547 44.058a52.72 52.72 0 0 1-23.976-6.621c-.003.221-.003.443-.003.666 0 25.646 18.246 47.039 42.46 51.902a53.001 53.001 0 0 1-23.904.907c6.735 21.029 26.284 36.332 49.446 36.76-18.116 14.196-40.94 22.659-65.738 22.659-4.273 0-8.486-.251-12.627-.74 23.425 15.018 51.247 23.781 81.139 23.781 97.362 0 150.601-80.656 150.601-150.602 0-2.296-.05-4.579-.153-6.848A107.577 107.577 0 0 0 258 24.82Z"/>
</svg>
