<svg xmlns="http://www.w3.org/2000/svg" width="258" height="252" fill="none">
  <path fill="#fff" d="M129 0A128.998 128.998 0 0 0 0 129c0 57.018 37.023 105.393 88.236 122.55 6.45 1.032 8.514-2.967 8.514-6.45v-21.801c-35.733 7.74-43.344-17.286-43.344-17.286-5.934-14.964-14.319-18.963-14.319-18.963-11.739-7.998.903-7.74.903-7.74 12.9.903 19.737 13.287 19.737 13.287 11.223 19.608 30.186 13.803 37.539 10.707 1.161-8.385 4.515-14.061 8.127-17.286-28.638-3.225-58.695-14.319-58.695-63.468 0-14.319 4.902-25.8 13.287-34.959-1.29-3.225-5.805-16.641 1.29-34.056 0 0 10.836-3.483 35.475 13.158 10.191-2.838 21.285-4.257 32.25-4.257s22.059 1.419 32.25 4.257c24.639-16.641 35.475-13.158 35.475-13.158 7.095 17.415 2.58 30.831 1.29 34.056 8.385 9.159 13.287 20.64 13.287 34.959 0 49.278-30.186 60.114-58.953 63.339 4.644 3.999 8.901 11.868 8.901 23.865V245.1c0 3.483 2.064 7.611 8.643 6.45C221.106 234.264 258 186.018 258 129a128.996 128.996 0 0 0-37.783-91.217A129.005 129.005 0 0 0 129 0Z"/>
</svg>
