<svg xmlns="http://www.w3.org/2000/svg" width="256" height="256" fill="none">
  <path fill="#E01E5A" d="M53.841 161.32c0 14.832-11.987 26.82-26.819 26.82-14.832 0-26.819-11.988-26.819-26.82 0-14.831 11.987-26.818 26.82-26.818H53.84v26.819l.001-.001Zm13.41 0c0-14.831 11.987-26.818 26.82-26.818 14.831 0 26.818 11.987 26.818 26.819v67.047c0 14.832-11.987 26.82-26.82 26.82-14.83 0-26.818-11.988-26.818-26.82V161.32Z"/>
  <path fill="#36C5F0" d="M94.07 53.638c-14.832 0-26.82-11.987-26.82-26.819C67.25 11.987 79.239 0 94.07 0s26.819 11.987 26.819 26.819v26.82h-26.82l.001-.001Zm0 13.613c14.832 0 26.819 11.987 26.819 26.819 0 14.832-11.987 26.819-26.82 26.819H26.82C11.987 120.889 0 108.902 0 94.069c0-14.83 11.987-26.818 26.819-26.818H94.07Z"/>
  <path fill="#2EB67D" d="M201.55 94.07c0-14.832 11.987-26.82 26.818-26.82 14.832 0 26.82 11.988 26.82 26.82s-11.988 26.819-26.82 26.819H201.55V94.07Zm-13.41 0c0 14.832-11.988 26.819-26.82 26.819-14.831 0-26.818-11.987-26.818-26.82V26.82C134.502 11.987 146.489 0 161.32 0c14.831 0 26.819 11.987 26.819 26.819v67.25l.001.001Z"/>
  <path fill="#ECB22E" d="M161.32 201.55c14.832 0 26.82 11.987 26.82 26.818 0 14.832-11.988 26.82-26.82 26.82-14.831 0-26.818-11.988-26.818-26.82V201.55h26.818Zm0-13.41c-14.831 0-26.818-11.988-26.818-26.82 0-14.831 11.987-26.818 26.819-26.818h67.25c14.832 0 26.82 11.987 26.82 26.819 0 14.831-11.988 26.819-26.82 26.819H161.32Z"/>
</svg>
