<svg width="510" height="133" viewBox="0 0 510 133" fill="none" xmlns="http://www.w3.org/2000/svg">
<path d="M219.211 103.398C230.683 103.398 239.983 96.8097 239.983 88.6825C239.983 80.5553 230.683 73.9669 219.211 73.9669C207.739 73.9669 198.439 80.5553 198.439 88.6825C198.439 96.8097 207.739 103.398 219.211 103.398Z" fill="#0C64D6"/>
<path d="M42.7028 107.301C36.4202 107.301 31.1099 106.179 26.7719 103.935C22.4339 101.692 18.9934 98.6999 16.4505 94.9603C13.9075 91.1458 12.0377 86.8452 10.841 82.0585C9.71909 77.2717 9.15814 72.3354 9.15814 67.2495V27.0856H16.8992V67.2495C16.8992 71.3631 17.3106 75.4019 18.1333 79.3659C19.0308 83.33 20.4519 86.8826 22.3965 90.0239C24.3411 93.1652 26.9589 95.6708 30.2498 97.5406C33.5407 99.3357 37.6543 100.233 42.5906 100.233C47.6765 100.233 51.865 99.2983 55.1558 97.4284C58.5215 95.4838 61.1393 92.9409 63.0091 89.7996C64.9537 86.6582 66.3374 83.143 67.1601 79.2537C67.9829 75.2897 68.3942 71.2883 68.3942 67.2495V27.0856H76.2475V67.2495C76.2475 72.5598 75.6491 77.6457 74.4524 82.5072C73.2558 87.3688 71.3111 91.632 68.6186 95.2968C66.0008 98.9617 62.5604 101.879 58.2972 104.048C54.034 106.217 48.8358 107.301 42.7028 107.301ZM122.584 107.862C117.723 107.862 113.347 106.591 109.458 104.048C105.644 101.505 102.615 98.3634 100.371 94.6237V130.637H92.742V48.2894H99.5855V59.6206C101.904 55.9557 105.008 53.0014 108.897 50.7576C112.786 48.439 116.938 47.2797 121.35 47.2797C125.389 47.2797 129.091 48.1398 132.457 49.8601C135.823 51.5055 138.74 53.7493 141.208 56.5915C143.676 59.4336 145.583 62.6871 146.93 66.3519C148.351 69.942 149.061 73.6817 149.061 77.5709C149.061 83.0308 147.939 88.0793 145.695 92.7165C143.526 97.2789 140.46 100.944 136.496 103.711C132.532 106.478 127.895 107.862 122.584 107.862ZM120.453 101.131C123.669 101.131 126.548 100.495 129.091 99.2235C131.634 97.8772 133.803 96.0822 135.598 93.8384C137.468 91.5946 138.889 89.089 139.862 86.3217C140.834 83.4795 141.32 80.5626 141.32 77.5709C141.32 74.4296 140.759 71.4379 139.637 68.5957C138.59 65.7536 137.057 63.248 135.037 61.079C133.018 58.91 130.699 57.1898 128.082 55.9183C125.464 54.6468 122.622 54.0111 119.555 54.0111C117.611 54.0111 115.591 54.3851 113.497 55.133C111.403 55.8809 109.383 56.9654 107.439 58.3865C105.569 59.7328 103.998 61.266 102.727 62.9863C101.455 64.7065 100.67 66.5389 100.371 68.4835V86.4339C101.568 89.2012 103.176 91.7068 105.195 93.9506C107.214 96.1196 109.533 97.8772 112.151 99.2235C114.843 100.495 117.611 101.131 120.453 101.131ZM189.155 103.935C188.556 104.16 187.622 104.571 186.35 105.17C185.079 105.768 183.545 106.291 181.75 106.74C179.955 107.189 178.011 107.413 175.916 107.413C173.747 107.413 171.691 107.002 169.746 106.179C167.876 105.357 166.38 104.122 165.258 102.477C164.137 100.757 163.576 98.6625 163.576 96.1944V54.3477H155.498V48.2894H163.576V28.5441H171.205V48.2894H184.667V54.3477H171.205V94.0628C171.354 96.157 172.102 97.7276 173.448 98.7747C174.869 99.8218 176.477 100.345 178.272 100.345C180.367 100.345 182.274 100.009 183.994 99.3357C185.714 98.5877 186.761 98.0642 187.135 97.765L189.155 103.935ZM193.975 89.9117C193.975 86.2469 195.022 83.1056 197.116 80.4878C199.21 77.7953 202.09 75.7385 205.755 74.3174C209.494 72.8215 213.795 72.0736 218.656 72.0736C221.498 72.0736 224.453 72.298 227.519 72.7467C230.586 73.1955 233.316 73.8686 235.709 74.7662V69.8298C235.709 64.8935 234.251 60.9668 231.334 58.0499C228.417 55.133 224.378 53.6745 219.217 53.6745C216.076 53.6745 212.972 54.2729 209.906 55.4696C206.914 56.5915 203.772 58.2743 200.482 60.5181L197.565 55.133C201.379 52.5152 205.119 50.5706 208.784 49.2991C212.448 47.9529 216.188 47.2797 220.003 47.2797C227.183 47.2797 232.867 49.3365 237.055 53.4501C241.244 57.5638 243.338 63.248 243.338 70.503V97.5406C243.338 98.5877 243.562 99.3731 244.011 99.8966C244.46 100.345 245.17 100.607 246.143 100.682V106.74C245.32 106.815 244.609 106.89 244.011 106.965C243.413 107.039 242.964 107.039 242.665 106.965C240.795 106.89 239.374 106.291 238.402 105.17C237.429 104.048 236.906 102.851 236.831 101.579L236.719 97.3163C234.101 100.682 230.698 103.3 226.51 105.17C222.321 106.965 218.058 107.862 213.72 107.862C209.98 107.862 206.577 107.077 203.511 105.506C200.519 103.861 198.163 101.692 196.443 98.9991C194.797 96.2318 193.975 93.2026 193.975 89.9117ZM233.129 94.3993C233.951 93.3522 234.587 92.3425 235.036 91.3702C235.485 90.3979 235.709 89.5378 235.709 88.7898V80.2634C233.166 79.2911 230.511 78.5432 227.744 78.0197C225.051 77.4961 222.321 77.2343 219.554 77.2343C214.094 77.2343 209.681 78.3188 206.315 80.4878C202.95 82.6568 201.267 85.6111 201.267 89.3508C201.267 91.5198 201.828 93.5766 202.95 95.5212C204.072 97.391 205.717 98.9617 207.886 100.233C210.055 101.43 212.598 102.028 215.515 102.028C219.18 102.028 222.583 101.318 225.724 99.8966C228.94 98.4755 231.409 96.6431 233.129 94.3993ZM308.96 106.74H301.331V74.093C301.331 67.2121 300.322 62.2009 298.302 59.0596C296.283 55.8435 293.104 54.2355 288.766 54.2355C285.774 54.2355 282.82 54.9834 279.903 56.4793C276.986 57.9003 274.406 59.8823 272.162 62.4253C269.993 64.8935 268.422 67.7356 267.45 70.9517V106.74H259.821V48.2894H266.777V61.5278C268.348 58.6857 270.404 56.2175 272.947 54.1233C275.49 51.9543 278.37 50.2714 281.586 49.0748C284.802 47.8781 288.13 47.2797 291.571 47.2797C294.787 47.2797 297.517 47.8781 299.761 49.0748C302.004 50.2714 303.799 51.9917 305.146 54.2355C306.492 56.4045 307.464 59.0596 308.063 62.2009C308.661 65.2674 308.96 68.7079 308.96 72.5224V106.74ZM350.471 107.862C346.283 107.862 342.393 107.077 338.803 105.506C335.213 103.861 332.109 101.654 329.492 98.8869C326.874 96.0448 324.817 92.7913 323.321 89.1264C321.9 85.4616 321.19 81.5349 321.19 77.3465C321.19 71.8866 322.424 66.8755 324.892 62.3131C327.435 57.7507 330.913 54.1233 335.326 51.4307C339.738 48.6634 344.749 47.2797 350.359 47.2797C356.118 47.2797 361.129 48.6634 365.392 51.4307C369.73 54.1981 373.133 57.8629 375.602 62.4253C378.07 66.9129 379.304 71.8492 379.304 77.2343C379.304 77.8327 379.304 78.431 379.304 79.0294C379.304 79.5529 379.266 79.9643 379.192 80.2634H329.155C329.529 84.4519 330.688 88.1915 332.633 91.4824C334.652 94.6985 337.233 97.2789 340.374 99.2235C343.59 101.093 347.068 102.028 350.808 102.028C354.622 102.028 358.212 101.056 361.578 99.1113C365.018 97.1667 367.412 94.6237 368.758 91.4824L375.377 93.2774C374.181 96.0448 372.348 98.5503 369.88 100.794C367.412 103.038 364.495 104.796 361.129 106.067C357.838 107.264 354.286 107.862 350.471 107.862ZM328.931 74.7662H372.124C371.825 70.503 370.665 66.7633 368.646 63.5472C366.701 60.3311 364.121 57.8255 360.905 56.0305C357.763 54.1607 354.286 53.2258 350.471 53.2258C346.657 53.2258 343.179 54.1607 340.038 56.0305C336.896 57.8255 334.316 60.3685 332.296 63.6594C330.352 66.8755 329.23 70.5777 328.931 74.7662Z" fill="#0C64D6"/>
<path d="M217 89.2995C219.775 89.2995 222.025 87.0496 222.025 84.2743C222.025 81.499 219.775 79.2491 217 79.2491C214.224 79.2491 211.975 81.499 211.975 84.2743C211.975 87.0496 214.224 89.2995 217 89.2995Z" fill="white"/>
<path d="M219.219 83.1994H214.373V100.158H219.219V83.1994Z" fill="white"/>
<path d="M456.32 100.958C456.004 100.958 455.609 100.879 455.372 100.563L405.439 57.9777C404.807 57.4247 404.728 56.4766 405.281 55.8445C405.834 55.2124 406.782 55.1334 407.414 55.6865L457.348 98.2722C457.98 98.8252 458.059 99.7734 457.506 100.405C457.189 100.721 456.715 100.958 456.32 100.958Z" fill="black"/>
<path d="M456.478 100.959C455.925 100.959 455.372 100.642 455.056 100.089L437.911 60.585C437.595 59.7949 437.911 58.9258 438.701 58.6098C439.492 58.2938 440.361 58.6098 440.677 59.3999L457.822 98.9043C458.138 99.6944 457.822 100.563 457.032 100.879C456.873 100.879 456.715 100.959 456.478 100.959Z" fill="black"/>
<path d="M456.557 101.196C456.32 101.196 456.162 101.117 455.925 101.038C455.135 100.721 454.819 99.8524 455.135 99.0623L472.596 59.2419C472.912 58.4518 473.86 58.1358 474.571 58.4518C475.362 58.7678 475.678 59.6369 475.362 60.427L457.901 100.247C457.743 100.8 457.189 101.196 456.557 101.196Z" fill="black"/>
<path d="M480.164 130.891C476.471 130.891 473.367 128.324 472.541 124.881C472.445 124.892 472.348 124.897 472.249 124.897H451.229C451.155 124.897 451.082 124.894 451.01 124.888C450.182 128.328 447.079 130.891 443.389 130.891C439.67 130.891 436.548 128.288 435.748 124.808C435.686 124.812 435.623 124.814 435.56 124.814C435.411 124.814 435.261 124.801 435.112 124.776C431.256 124.115 428.425 120.803 428.381 116.903L428.376 116.491C428.327 112.209 430.967 108.395 434.386 107.807C435.786 107.567 438.59 105.916 440.247 104.067C442.697 101.334 447.363 99.2666 451.101 99.2579L461.857 99.2327C465.607 99.2327 470.313 101.301 472.827 104.043L472.975 104.204C474.596 105.971 478.082 107.911 480.436 108.356L487.994 109.786C492.116 110.565 495.464 114.044 495.619 117.707C495.691 119.427 495.055 121.094 493.83 122.4C492.394 123.932 490.264 124.84 487.987 124.89C487.967 124.891 487.947 124.891 487.927 124.891C487.879 124.891 487.832 124.89 487.786 124.888C486.957 128.328 483.854 130.891 480.164 130.891Z" fill="black"/>
<path d="M443.127 117.861C445.994 117.861 448.318 120.185 448.318 123.052C448.318 125.919 445.994 128.243 443.127 128.243C440.26 128.243 437.936 125.919 437.936 123.052C437.936 120.185 440.26 117.861 443.127 117.861ZM479.902 117.861C482.769 117.861 485.093 120.185 485.093 123.052C485.093 125.919 482.769 128.243 479.902 128.243C477.035 128.243 474.711 125.919 474.711 123.052C474.711 120.185 477.035 117.861 479.902 117.861ZM487.241 112.386L479.682 110.957C476.775 110.407 472.762 108.174 470.762 105.994L470.614 105.832C468.615 103.652 464.56 101.873 461.602 101.88L450.846 101.905C447.888 101.912 443.888 103.68 441.957 105.834C440.026 107.988 436.703 110.05 434.573 110.417C432.443 110.783 430.728 113.503 430.761 116.461L430.766 116.873C430.796 119.521 432.764 121.732 435.298 122.167C435.74 118.237 439.082 115.172 443.127 115.172C447.201 115.172 450.563 118.28 450.967 122.25H471.987C472.391 118.28 475.753 115.172 479.827 115.172C483.899 115.172 487.26 118.277 487.665 122.244C490.553 122.18 492.812 120.216 492.712 117.818C492.609 115.38 490.148 112.936 487.241 112.386ZM446.427 111.358C443.469 111.347 442.17 109.87 443.539 108.076C444.908 106.283 448.449 104.815 451.407 104.815H454.371L456.264 111.394L446.427 111.358ZM467.177 111.434L459.065 111.404L457.169 104.815H461.266C464.224 104.815 467.974 106.309 469.6 108.135C471.226 109.96 470.136 111.445 467.177 111.434Z" fill="white"/>
<path d="M456.557 101.196C456.162 101.196 455.688 101.037 455.372 100.642C454.819 100.01 454.898 99.0623 455.53 98.5092L505.464 55.8445C506.017 54.1853 506.096 52.7632 506.096 52.6051C506.096 43.2821 499.933 35.3022 499.854 35.2232L499.775 35.1442C491.242 21.7917 479.233 17.5253 473.386 15.471C470.068 14.2859 458.138 10.8095 441.783 14.839C428.588 18.1573 417.211 27.0853 410.653 39.3317C407.493 45.1783 406.94 49.5238 407.019 52.1311C407.019 52.6842 407.098 53.1582 407.098 53.5532C409.705 50.7879 414.999 46.6005 422.979 46.9955C423.769 46.9955 433.645 47.4696 439.412 56.7136C441.625 53.2372 446.602 47.5486 456.162 46.9955C456.478 46.9955 459.639 46.7585 463.431 48.1016C466.591 49.2078 470.858 51.578 474.097 56.6346C476.231 53.1582 481.129 47.5486 490.373 46.9955C491.163 46.9165 491.953 47.5486 491.953 48.4177C492.032 49.2868 491.4 49.9979 490.531 49.9979C479.312 50.6299 475.677 59.953 475.519 60.348C475.282 60.9011 474.808 61.2961 474.176 61.2961C473.623 61.2961 472.991 60.9801 472.754 60.427C467.224 49.2078 456.399 49.9979 456.32 49.9979C444.785 50.6299 440.914 60.111 440.756 60.506C440.519 61.0591 439.966 61.4541 439.412 61.4541C438.78 61.4541 438.227 61.1381 437.99 60.585C433.329 50.3139 422.979 50.0769 422.9 50.0769H422.821C412.866 49.6028 407.73 57.5827 407.73 57.6617C407.414 58.1358 406.94 58.3728 406.387 58.3728C405.834 58.3728 405.36 58.0567 405.123 57.5827C404.965 57.2667 401.33 50.3929 408.046 37.9885C414.999 24.9521 427.087 15.471 441.23 11.9946C458.375 7.72817 471.095 11.4416 474.571 12.7057C480.181 14.6809 493.296 19.3425 502.461 33.485C503.094 34.3541 509.335 42.65 509.335 52.6842C509.335 52.8422 509.256 54.9754 508.387 57.3457C508.308 57.5827 508.15 57.8197 507.992 57.9777L457.743 100.879C457.268 101.038 456.952 101.196 456.557 101.196Z" fill="black"/>
<path d="M490.847 51.8941C492.724 51.8941 494.245 50.373 494.245 48.4967C494.245 46.6204 492.724 45.0993 490.847 45.0993C488.971 45.0993 487.45 46.6204 487.45 48.4967C487.45 50.373 488.971 51.8941 490.847 51.8941Z" fill="#0C64D6"/>
<path d="M443.151 126.448C445.028 126.448 446.549 124.927 446.549 123.051C446.549 121.175 445.028 119.654 443.151 119.654C441.275 119.654 439.754 121.175 439.754 123.051C439.754 124.927 441.275 126.448 443.151 126.448Z" fill="#0C64D6"/>
<path d="M479.882 126.528C481.758 126.528 483.279 125.007 483.279 123.131C483.279 121.254 481.758 119.733 479.882 119.733C478.005 119.733 476.484 121.254 476.484 123.131C476.484 125.007 478.005 126.528 479.882 126.528Z" fill="#0C64D6"/>
</svg>
