<svg width="670" viewBox="0 0 670 757" fill="none" xmlns="http://www.w3.org/2000/svg">
<g filter="url(#filter0_d_18_19)">
<path d="M330.827 545C328.416 545 325.522 544.061 323.593 541.713C320.217 537.956 320.699 532.322 324.557 529.035L629.368 275.466C632.744 265.605 633.226 257.153 633.226 256.214C633.226 200.805 595.607 153.378 595.125 152.908L594.642 152.439C542.554 73.0815 469.246 47.7246 433.556 35.5158C413.3 28.4723 340.473 7.81114 240.638 31.7592C160.095 51.4812 90.6443 104.543 50.6138 177.326C31.322 212.074 27.9459 237.901 28.4282 253.397C28.4282 256.684 28.9105 259.501 28.9105 261.849C44.8263 245.414 77.14 220.527 125.852 222.875C130.675 222.875 190.962 225.692 226.169 280.632C239.673 259.971 270.058 226.162 328.416 222.875C330.345 222.875 349.637 221.466 372.787 229.449C392.079 236.022 418.122 250.11 437.897 280.162C450.918 259.501 480.821 226.162 537.249 222.875C542.072 222.405 546.895 226.162 546.895 231.327C547.377 236.492 543.519 240.718 538.214 240.718C469.728 244.475 447.542 299.884 446.578 302.232C445.131 305.519 442.237 307.867 438.379 307.867C435.003 307.867 431.144 305.989 429.698 302.702C395.937 236.022 329.862 240.718 329.38 240.718C258.965 244.475 235.333 300.823 234.368 303.171C232.921 306.458 229.545 308.806 226.169 308.806C222.311 308.806 218.935 306.928 217.488 303.641C189.032 242.596 125.852 241.188 125.369 241.188H124.887C64.118 238.37 32.7689 285.797 32.7689 286.267C30.8397 289.084 27.9459 290.493 24.5699 290.493C21.1938 290.493 18.3 288.614 16.8532 285.797C15.8886 283.919 -6.297 243.066 34.6981 169.343C77.14 91.8643 150.931 35.5158 237.262 14.8547C341.92 -10.5021 419.569 11.5677 440.79 19.0808C475.033 30.8201 555.094 58.5248 611.04 142.578C614.899 147.743 653 197.048 653 256.684C653 257.623 652.518 270.301 647.212 284.388C646.73 285.797 645.766 287.206 644.801 288.145L338.062 543.122C335.168 544.061 333.239 545 330.827 545Z" fill="white"/>
<path d="M330.85 551.904C329.407 551.904 328.445 551.423 327.003 550.943C322.195 549.019 320.271 543.73 322.195 538.922L428.457 296.586C430.38 291.778 436.15 289.855 440.478 291.778C445.286 293.701 447.209 298.99 445.286 303.799L339.024 546.134C338.062 549.5 334.696 551.904 330.85 551.904Z" fill="white"/>
<path d="M328.407 550.462C326.483 550.462 324.079 549.981 322.637 548.058L18.7557 288.893C14.9091 285.527 14.4283 279.757 17.7941 275.911C21.1598 272.064 26.9297 271.583 30.7763 274.949L334.657 534.114C338.504 537.479 338.985 543.249 335.619 547.096C333.696 549.019 330.811 550.462 328.407 550.462Z" fill="white"/>
<path d="M331.368 550.462C328.003 550.462 324.637 548.538 322.714 545.173L218.375 304.76C216.451 299.952 218.375 294.663 223.183 292.74C227.991 290.817 233.28 292.74 235.203 297.548L339.542 537.96C341.466 542.769 339.542 548.058 334.734 549.981C333.772 549.981 332.811 550.462 331.368 550.462Z" fill="white"/>
<path d="M199.086 593.171L199.06 593.023L199.086 593.171C205.595 592.05 213.91 588.344 222.062 583.285C230.216 578.224 238.221 571.801 244.107 565.233C249.964 558.699 258.967 552.743 268.758 548.415C278.55 544.087 289.114 541.394 298.088 541.373L363.547 541.22C372.521 541.199 383.171 543.887 393.099 548.241C403.026 552.594 412.218 558.606 418.283 565.22L418.393 565.119L418.283 565.22L419.186 566.205C425.284 572.854 434.447 579.579 444.293 585.059C454.14 590.539 464.684 594.781 473.549 596.457L519.552 605.155C528.365 606.822 536.506 611.362 542.521 617.333C548.536 623.306 552.414 630.7 552.725 638.071C553.326 652.514 539.748 664.397 522.299 664.849C519.757 640.697 499.272 621.813 474.461 621.813C449.638 621.813 429.14 640.716 426.615 664.884H298.961C296.436 640.716 275.943 621.813 251.117 621.813C226.473 621.813 206.108 640.442 203.339 664.358C188.061 661.658 176.224 648.3 176.041 632.311L175.891 632.313L176.041 632.311L176.012 629.803C175.91 620.831 178.461 612.221 182.65 605.58C186.84 598.936 192.659 594.276 199.086 593.171ZM319.685 558.888L319.654 558.779H319.541H301.504C292.48 558.779 282.574 561.018 273.88 564.622C265.19 568.226 257.693 573.201 253.504 578.688C251.408 581.433 250.324 584.07 250.173 586.486C250.021 588.907 250.806 591.094 252.424 592.932C255.652 596.6 262.184 598.867 271.2 598.9L331.065 599.121L331.265 599.122L331.21 598.93L319.685 558.888ZM347.968 599.074L347.999 599.182L348.112 599.182L397.479 599.363C406.493 599.396 412.717 597.153 415.433 593.453C416.796 591.597 417.267 589.385 416.77 586.938C416.275 584.495 414.817 581.824 412.332 579.034C407.364 573.454 399.163 568.391 389.959 564.725C380.754 561.057 370.529 558.779 361.504 558.779H336.569H336.37L336.425 558.971L347.968 599.074ZM251.117 638.475C268.482 638.475 282.558 652.552 282.558 669.917C282.558 687.283 268.482 701.359 251.117 701.359C233.751 701.359 219.675 687.283 219.675 669.917C219.675 652.552 233.751 638.475 251.117 638.475ZM474.917 638.475C492.282 638.475 506.359 652.552 506.359 669.917C506.359 687.283 492.282 701.359 474.917 701.359C457.552 701.359 443.475 687.283 443.475 669.917C443.475 652.552 457.552 638.475 474.917 638.475Z" fill="white" stroke="black" stroke-width="0.3"/>
<path d="M558.202 231.194C558.202 242.061 549.393 250.87 538.527 250.87C527.66 250.87 518.851 242.061 518.851 231.194C518.851 220.328 527.66 211.519 538.527 211.519C549.393 211.519 558.202 220.328 558.202 231.194Z" fill="#0C64D6" stroke="white" stroke-width="2"/>
<path d="M271.44 669.911C271.44 681.054 262.407 690.087 251.265 690.087C240.122 690.087 231.089 681.054 231.089 669.911C231.089 658.769 240.122 649.736 251.265 649.736C262.407 649.736 271.44 658.769 271.44 669.911Z" fill="#0C64D6" stroke="white"/>
<path d="M474.793 691.071C486.212 691.071 495.468 681.815 495.468 670.396C495.468 658.977 486.212 649.72 474.793 649.72C463.374 649.72 454.118 658.977 454.118 670.396C454.118 681.815 463.374 691.071 474.793 691.071Z" fill="#0C64D6"/>
</g>
<defs>
<filter id="filter0_d_18_19" x="0" y="0" width="663" height="718.509" filterUnits="userSpaceOnUse" color-interpolation-filters="sRGB">
<feFlood flood-opacity="0" result="BackgroundImageFix"/>
<feColorMatrix in="SourceAlpha" type="matrix" values="0 0 0 0 0 0 0 0 0 0 0 0 0 0 0 0 0 0 127 0" result="hardAlpha"/>
<feOffset dy="7"/>
<feGaussianBlur stdDeviation="5"/>
<feComposite in2="hardAlpha" operator="out"/>
<feColorMatrix type="matrix" values="0 0 0 0 0 0 0 0 0 0 0 0 0 0 0 0 0 0 0.25 0"/>
<feBlend mode="normal" in2="BackgroundImageFix" result="effect1_dropShadow_18_19"/>
<feBlend mode="normal" in="SourceGraphic" in2="effect1_dropShadow_18_19" result="shape"/>
</filter>
</defs>
</svg>
